<svg xmlns="http://www.w3.org/2000/svg" viewBox="0 0 72.4 94.925"><defs xmlns="http://www.w3.org/2000/svg"><style>g{display:none}g:target,g:target&gt;*{display:inline}</style></defs><g id="green" fill="#c6e0b2"><path d="M36.2 0A36.19 36.19 0 000 36.2c0 15.7 22.3 44.9 31.9 56.7a5.578 5.578 0 008.6 0c9.6-11.8 31.9-41 31.9-56.7A36.19 36.19 0 0036.2 0zm0 51.9a15.7 15.7 0 1115.7-15.7 15.663 15.663 0 01-15.7 15.7z" id="Слой_1-2" data-name="Слой 1"/></g><g id="green2" fill="#5aaa1f"><path d="M36.2 0A36.19 36.19 0 000 36.2c0 15.7 22.3 44.9 31.9 56.7a5.578 5.578 0 008.6 0c9.6-11.8 31.9-41 31.9-56.7A36.19 36.19 0 0036.2 0zm0 51.9a15.7 15.7 0 1115.7-15.7 15.663 15.663 0 01-15.7 15.7z" id="Слой_1-2" data-name="Слой 1"/></g><g id="violet" fill="#7b3dc1"><path d="M36.2 0A36.19 36.19 0 000 36.2c0 15.7 22.3 44.9 31.9 56.7a5.578 5.578 0 008.6 0c9.6-11.8 31.9-41 31.9-56.7A36.19 36.19 0 0036.2 0zm0 51.9a15.7 15.7 0 1115.7-15.7 15.663 15.663 0 01-15.7 15.7z" id="Слой_1-2" data-name="Слой 1"/></g>background-color: #7b3dc1;</svg>