<svg xmlns="http://www.w3.org/2000/svg" viewBox="0 0 34.184 42"><g id="Слой_2" data-name="Слой 2"><path d="M22.467 6.704A9.256 9.256 0 0024.65 0a9.411 9.411 0 00-6.183 3.183 8.738 8.738 0 00-2.22 6.497 7.771 7.771 0 006.22-2.976zm6.08 15.606a9.52 9.52 0 014.542-8.005 9.831 9.831 0 00-7.68-4.153c-3.27-.324-6.386 1.926-8.04 1.926-1.66 0-4.213-1.876-6.93-1.818a10.272 10.272 0 00-8.687 5.262c-3.695 6.44-.939 15.953 2.669 21.162 1.765 2.551 3.866 5.417 6.632 5.313 2.662-.104 3.662-1.723 6.88-1.723 3.21-.004 4.117 1.721 6.923 1.67 2.862-.061 4.677-2.603 6.433-5.167a22.89 22.89 0 002.895-5.964 9.318 9.318 0 01-5.636-8.503z" fill="#fff" id="Слой_1-2" data-name="Слой 1"/></g></svg>