<svg xmlns="http://www.w3.org/2000/svg" viewBox="0 0 35.823 40"><defs><style>.cls-1,.cls-3,.cls-4{fill:#fff}.cls-3,.cls-4{isolation:isolate}.cls-3{opacity:.12}.cls-4{opacity:.25}</style></defs><g id="Слой_2" data-name="Слой 2"><g id="Слой_1-2" data-name="Слой 1"><path class="cls-1" d="M.02 2.594c-.005.094-.02.182-.02.28v34.04c0 .125.011.239.017.358.002.043.008.084.01.126L17.427 20zm35.666 16.91c.01.041.009.083.017.124a1.419 1.419 0 01.047.344 2.584 2.584 0 01-1.555 2.176l-6.878 3.93.062.062 6.816-3.681c1.402-.801 1.895-1.924 1.491-2.955z"/><path class="cls-1" d="M34.195 17.951l-6.951-3.957L21.239 20l5.928 5.928 7.028-3.935c.933-.622 1.555-1.244 1.555-2.021a1.798 1.798 0 00-.047-.344 3.219 3.219 0 00-1.508-1.677zM1.693 39.545a2.8 2.8 0 002.193-.455l20.843-11.787-5.397-5.397z"/><path class="cls-1" d="M3.886 39.401a2.71 2.71 0 01-2.432.383l-.089.09a3.401 3.401 0 002.52-.317l21.01-12.088-.15-.151zm21.037-26.898L3.886.543l21.027 11.969.01-.009zm-.109.109L3.886.698A2.97 2.97 0 001.524.285l17.808 17.809z"/><path class="cls-1" d="M3.886 39.09a2.8 2.8 0 01-2.193.455l-.239.239a2.71 2.71 0 002.432-.383l20.858-12.083-.015-.015z"/><path d="M3.886 39.09a2.8 2.8 0 01-2.193.455l-.239.239a2.71 2.71 0 002.432-.383l20.858-12.083-.015-.015z" style="isolation:isolate" opacity=".2" fill="#fff"/><path class="cls-1" d="M0 37.07c0 .07.013.133.017.202C.01 37.153 0 37.039 0 36.914z"/><path class="cls-3" d="M0 37.07c0 .07.013.133.017.202C.01 37.153 0 37.039 0 36.914z"/><path class="cls-1" d="M34.195 21.993l-7.028 3.935.15.15 6.878-3.93a2.584 2.584 0 001.555-2.176c0 .777-.622 1.399-1.555 2.02z"/><path class="cls-3" d="M34.195 21.993l-7.028 3.935.15.15 6.878-3.93a2.584 2.584 0 001.555-2.176c0 .777-.622 1.399-1.555 2.02z"/><path class="cls-4" d="M3.886.543A2.988 2.988 0 001.369.13l.051.05a2.865 2.865 0 012.466.362zm30.309 17.408a3.244 3.244 0 011.491 1.553 2.856 2.856 0 00-1.49-1.708l-6.853-3.9-.09.089z"/><path class="cls-1" d="M.007 2.58C.005 2.627 0 2.67 0 2.72v.155c0-.098.015-.186.02-.28z"/><path class="cls-4" d="M.007 2.58C.005 2.627 0 2.67 0 2.72v.155c0-.098.015-.186.02-.28z"/><path class="cls-1" d="M34.195 17.951a3.219 3.219 0 011.508 1.677c-.008-.041-.007-.083-.017-.124a3.244 3.244 0 00-1.49-1.553z"/><path class="cls-4" d="M34.195 17.951a3.219 3.219 0 011.508 1.677c-.008-.041-.007-.083-.017-.124a3.244 3.244 0 00-1.49-1.553z"/><path class="cls-1" d="M35.703 19.628a1.798 1.798 0 01.047.344 1.419 1.419 0 00-.047-.344z"/><path class="cls-1" d="M35.703 19.628a1.798 1.798 0 01.047.344 1.419 1.419 0 00-.047-.344z"/><path class="cls-1" d="M35.703 19.628a1.798 1.798 0 01.047.344 1.419 1.419 0 00-.047-.344z"/><path class="cls-4" d="M35.703 19.628a1.798 1.798 0 01.047.344 1.419 1.419 0 00-.047-.344z"/><path class="cls-1" d="M34.195 17.951l-6.941-3.966-.01.009 6.951 3.957z"/><path class="cls-4" d="M34.195 17.951l-6.941-3.966-.01.009 6.951 3.957z"/><path class="cls-1" d="M1.42.181l.104.104a2.97 2.97 0 012.362.413l20.928 11.914.1-.1L3.885.543A2.865 2.865 0 001.42.183z"/><path class="cls-4" d="M1.42.181l.104.104a2.97 2.97 0 012.362.413l20.928 11.914.1-.1L3.885.543A2.865 2.865 0 001.42.183z"/></g></g></svg>