<svg xmlns="http://www.w3.org/2000/svg" viewBox="0 0 58.492 7"><g id="Слой_2" data-name="Слой 2"><path d="M58.247 2.905l-.152-.152-.004-.003L55.586.245a.844.844 0 00-1.19 0l-.15.152a.844.844 0 000 1.19l.965.965H3.28l.966-.966a.844.844 0 000-1.19l-.152-.15a.844.844 0 00-1.19 0L.402 2.75l-.004.003-.152.152a.845.845 0 000 1.19l.152.152.004.003 2.505 2.505a.844.844 0 001.19 0l.15-.152a.844.844 0 000-1.19l-.965-.965h51.93l-.966.966a.844.844 0 000 1.19l.152.15a.844.844 0 001.19 0L58.09 4.25l.004-.003.152-.152a.845.845 0 000-1.19z" fill="#5aaa1f" id="Слой_1-2" data-name="Слой 1"/></g></svg>