<svg xmlns="http://www.w3.org/2000/svg" viewBox="0 0 350.769 118"><g id="Слой_2" data-name="Слой 2"><path d="M114.974 42.816L43.479 15.24c-5.958-2.298-6.795-6.043-6.03-8.029l82.312 23.193 2.873-7.447a5.615 5.615 0 00-4.043-7.263L38.45.182a10.824 10.824 0 00-12.27 6.675L.71 72.89a10.674 10.674 0 006.1 13.76l79.438 30.64a10.674 10.674 0 0013.76-6.1l21.066-54.614a10.674 10.674 0 00-6.1-13.76zM90.29 84.628a7.982 7.982 0 1110.32-4.575 8.184 8.184 0 01-10.32 4.575zm136.308-52.019l-57.975 12.658c-4.831 1.055-6.97-1.01-7.32-2.62L224.4 22.544l-1.319-6.04a4.348 4.348 0 00-5.71-2.97l-58.42 24.143a8.382 8.382 0 00-5.086 9.547l11.692 53.546a8.266 8.266 0 009.81 6.294l64.416-14.065a8.266 8.266 0 006.294-9.81l-9.67-44.286a8.266 8.266 0 00-9.81-6.294zm1.872 37.552a6.181 6.181 0 114.72-7.357 6.338 6.338 0 01-4.72 7.357zm117.829-37.495L309.65 17.282c-3.054-1.282-3.431-3.237-3.004-4.255l42.322 13.277 1.603-3.818a2.912 2.912 0 00-1.986-3.827L307.272 9.4a5.614 5.614 0 00-6.463 3.273L286.6 46.52a5.537 5.537 0 002.954 7.227l40.72 17.094a5.537 5.537 0 007.227-2.953l11.752-27.995a5.537 5.537 0 00-2.953-7.227zM332.866 53.97a4.14 4.14 0 115.42-2.215 4.245 4.245 0 01-5.42 2.215z" fill="#d8edc8" id="Слой_1-2" data-name="Слой 1"/></g></svg>