<svg width="20" height="20" fill="none" xmlns="http://www.w3.org/2000/svg"><circle cx="10" cy="10" r="10" fill="#5AAA1F"/><path d="M15.049 8.743L13.95 7.551a1.221 1.221 0 00-.983-.397l-1.665.132V6.19c0-.113-.076-.189-.19-.189H4.19A.19.19 0 004 6.19v6.564c0 .284.227.51.51.51h.645A1.324 1.324 0 006.458 14.4c.663 0 1.23-.492 1.306-1.135h3.367a1.324 1.324 0 001.306 1.135c.662 0 1.21-.492 1.305-1.135h.87a.719.719 0 00.72-.72V9.558a1.16 1.16 0 00-.284-.814zm-8.59 4.9a.57.57 0 01-.567-.567c0-.322.246-.568.567-.568a.57.57 0 01.568.568.57.57 0 01-.568.567zm5.979 0a.57.57 0 01-.568-.567.57.57 0 01.568-.568.57.57 0 01.567.568.557.557 0 01-.567.567zm1.967-3.292H11.87V8.176l1.154-.095h.02c.075 0 .15.038.188.095l1.098 1.21c.038.057.075.114.075.17v.795z" fill="#fff"/></svg>