<svg xmlns="http://www.w3.org/2000/svg" viewBox="0 0 57.25 57.25"><defs><style>.cls-1{stroke:#5aaa1f;stroke-miterlimit:10;stroke-width:.25px}</style></defs><g id="Слой_2" data-name="Слой 2" fill="#5aaa1f"><g id="Слой_1-2" data-name="Слой 1"><path class="cls-1" d="M28.625.125a28.5 28.5 0 1028.5 28.5 28.503 28.503 0 00-28.5-28.5zm0 53.2a24.7 24.7 0 1124.7-24.7 24.729 24.729 0 01-24.7 24.7z"/><path class="cls-1" d="M37.046 17.109a8.387 8.387 0 00-5.918-2.078h-8.873v18.647h-2.982v3.486h2.982v5.485h3.742v-5.485h6.83v-3.486h-6.83v-2.704h5.137q4.144 0 6.154-2.397a8.49 8.49 0 002.011-5.63 7.543 7.543 0 00-2.253-5.838zm-3.085 9.635a4.435 4.435 0 01-3.188 1.071h-4.776v-9.569h4.776a4.284 4.284 0 012.507.583q2.24 1.09 2.24 4.136 0 2.707-1.559 3.779z"/></g></g></svg>