<svg xmlns="http://www.w3.org/2000/svg" viewBox="0 0 59.125 55"><g id="Слой_2" data-name="Слой 2" fill="#5aaa1f"><path d="M43.055.014a2.066 2.066 0 00-.451.107L1.354 15.242A2.118 2.118 0 000 17.197v35.741A2.143 2.143 0 002.063 55h50.875A2.143 2.143 0 0055 52.938v-8.935h2.063a2.143 2.143 0 002.062-2.062V28.194a2.143 2.143 0 00-2.063-2.062H55v-8.935a2.143 2.143 0 00-2.063-2.062h-7.562V2.075a2.153 2.153 0 00-2.32-2.061zM41.25 5.019v10.116H13.664zM4.125 19.259h46.75v6.873H36.223a2.136 2.136 0 00-1.848 2.062v13.747a2.143 2.143 0 002.063 2.062h14.437v6.873H4.125zM38.5 30.256H55v9.623H38.5zm4.125 2.062a2.75 2.75 0 102.75 2.75 2.75 2.75 0 00-2.75-2.75z" id="Слой_1-2" data-name="Слой 1"/></g></svg>