<svg xmlns="http://www.w3.org/2000/svg" viewBox="0 0 49.341 58.5"><defs><style>.cls-1{stroke:#5aaa1f;stroke-miterlimit:10;stroke-width:1.5px}</style></defs><g id="Слой_2" data-name="Слой 2"><g id="Слой_1-2" fill="#5aaa1f" data-name="Слой 1"><path class="cls-1" d="M47.136 4.3a47.597 47.597 0 01-5.907.329c-5.299 0-10.361-1.816-14.43-3.274a12.976 12.976 0 00-1.585-.53 1.751 1.751 0 00-.94-.02c-.304.088-.557.178-.81.269a16.81 16.81 0 01-.88.294c-4.061 1.456-9.108 3.26-14.391 3.26a45.936 45.936 0 01-5.925-.33 1.165 1.165 0 00-.122-.007 1.562 1.562 0 00-.961.351A1.323 1.323 0 00.75 5.673V33.83c0 13.422 23.105 23.676 23.339 23.766l.114.05a1.198 1.198 0 00.468.105.944.944 0 00.469-.105l.234-.113c11.224-5.346 23.217-14.38 23.217-23.703V5.673a1.586 1.586 0 00-.47-1.062 1.364 1.364 0 00-.985-.31zm-1.111 30.805h-.25c-1.396 9.936-18.52 18.562-20.545 19.55l-.56.272-.558-.273C22 53.624 3.477 44.292 3.477 33.83V7.183l1.367.097c1.074.076 2.18.076 3.349.076 5.587 0 10.947-1.852 15.254-3.34l.087-.03c.15-.05.308-.095.465-.14.123-.035.245-.07.35-.105l.402-.133.402.133c.105.035.227.07.35.105.157.045.315.09.45.136l.27.093c4.23 1.462 9.495 3.281 15.086 3.281 1.118 0 2.274 0 3.349-.076l1.367-.097z"/><path class="cls-1" d="M15.232 28.594l-1.95 1.951 6.743 6.681 17.321-17.393-1.876-1.877-15.439 15.438-4.799-4.8z"/></g></g></svg>