<svg xmlns="http://www.w3.org/2000/svg" viewBox="0 0 64.327 63"><g id="Слой_2" data-name="Слой 2"><path d="M61.645 55.264c-1.746-3.926-10.268-6.524-15.93-8.963s-4.89-3.918-5.093-5.94a14.11 14.11 0 01-.056-.843 16.98 16.98 0 004.025-6.14l.07-.176c.217-.577.41-1.178.575-1.79 1.298-.257 2.054-1.635 2.343-2.91a5.742 5.742 0 00.76-3.229c-.172-1.771-.879-2.633-1.692-3.02.219-.52.421-1.056.586-1.59.839-2.724.042-8.824-1.335-12.187-1.376-3.362-7.122-5.921-8.944-5.846a4.419 4.419 0 00-2.859 1.264 2.015 2.015 0 00-.774-1.287c-1.666-1.215-6.915-1.756-9.351.103-2.437 1.86-3.01 2.866-4.884 5.535-1.875 2.668-2.487 9.212-2.302 10.606a20.315 20.315 0 00.87 3.415c-.802.394-1.495 1.256-1.664 3.008a5.742 5.742 0 00.76 3.23c.293 1.296 1.07 2.7 2.41 2.92.167.616.362 1.22.582 1.802l.044.112.02.05a16.94 16.94 0 004.134 6.239c-.011.253-.028.5-.051.735-.204 2.022.392 3.5-5.27 5.94-5.664 2.438-14.186 5.036-15.933 8.962C.94 59.19 1.637 61.5 1.637 61.5h61.05s.704-2.31-1.042-6.236z" fill="none" stroke="#cbdc70" stroke-miterlimit="10" stroke-width="3" id="Слой_1-2" data-name="Слой 1"/></g></svg>