<svg xmlns="http://www.w3.org/2000/svg" viewBox="0 0 51.885 54"><g id="Слой_2" data-name="Слой 2" fill="#5aaa1f"><path d="M49.885 38.904a11.743 11.743 0 00-11.511-11.947 11.297 11.297 0 00-7.653 3.018 9.695 9.695 0 00-2.271-.933 8.928 8.928 0 00-6.005.684 9.654 9.654 0 00-1.898 1.276 10.545 10.545 0 001.37-6.129 22.582 22.582 0 00-1.245-5.569 10.489 10.489 0 01-.654-2.582 5.838 5.838 0 01.28-2.178 17.323 17.323 0 012.676-4.791 4.273 4.273 0 003.484 1.96 12.9 12.9 0 002.427-.28 7.065 7.065 0 012.427.031 35.862 35.862 0 004.386 1.027 3.224 3.224 0 002.085-.436 2.284 2.284 0 00.342-2.426.442.442 0 01-.062-.187.526.526 0 01.155-.062 3.734 3.734 0 001.245-.965 2.038 2.038 0 00.311-2.084c-.249-.498-.933-.56-1.4-.778a5.247 5.247 0 01-2.271-2.085c-.28-.466-.498-.933-1.089-.964-.653-.031-1.307.062-1.96.093a57.751 57.751 0 01-8.027-.342 8.923 8.923 0 00-.964-.155 3.862 3.862 0 00-.84-.094 2.225 2.225 0 00-1.027.56 28.856 28.856 0 00-2.551 2.21 44.285 44.285 0 00-4.573 5.07 77.007 77.007 0 00-7.187 11.636c-2.24 4.355-4.573 8.835-5.507 13.689a14.506 14.506 0 00-.342 4.013 6.74 6.74 0 001.462 3.422 21.875 21.875 0 004.916 4.512 29.67 29.67 0 0013.253 4.604 44.029 44.029 0 007.84.187c1.65-.094 9.52-.436 12.414-1.65h.03a11.91 11.91 0 007.934-11.355z" fill="none" stroke="#5aaa1f" stroke-linejoin="round" stroke-width="4" id="Слой_1-2" data-name="Слой 1"/></g></svg>