<svg xmlns="http://www.w3.org/2000/svg" viewBox="0 0 88 52"><defs><style>.cls-1{fill:#5aaa1f}</style></defs><g id="Слой_2" data-name="Слой 2"><g id="Слой_1-2" data-name="Слой 1"><path class="cls-1" d="M86.002 0H26a1.999 1.999 0 00-1.414.586L22 3.172 19.414.586A1.998 1.998 0 0018 0H2a1.999 1.999 0 00-2 1.998V50a1.999 1.999 0 001.998 2H18a1.998 1.998 0 001.414-.586L22 48.828l2.586 2.586A1.999 1.999 0 0026 52h60a1.999 1.999 0 002-1.998V2a1.999 1.999 0 00-1.998-2zM84 48H26.828L24 45.172V42a2 2 0 00-4 0v3.172L17.172 48H4V4h13.172L20 6.828V10a2 2 0 004 0V6.828L26.828 4H84z"/><path class="cls-1" d="M22.002 16H22a1.999 1.999 0 00-2 1.998V22a2 2 0 004 0v-4a1.999 1.999 0 00-1.998-2zm0 12H22a1.999 1.999 0 00-2 1.998V34a2 2 0 004 0v-4a1.999 1.999 0 00-1.998-2zM45.6 29.546c0-2.908-1.976-4.104-4.617-4.104a8.875 8.875 0 00-1.386.114l.132-1.9 5.301.02V20.73h-8.454l-.456 7.809a9.942 9.942 0 013.192-.533c2.108.019 2.773.646 2.773 1.463 0 1.007-1.12 1.444-2.583 1.444a7.056 7.056 0 01-3.781-1.064v3.23a9.99 9.99 0 004.16.874c2.889 0 5.719-1.216 5.719-4.407zm7.391 4.407c4.218 0 5.985-3.059 5.985-6.744s-1.767-6.745-5.985-6.745c-4.217 0-5.983 3.06-5.983 6.745s1.766 6.744 5.983 6.744zm0-10.448c1.692 0 2.47 1.215 2.47 3.704s-.778 3.704-2.47 3.704c-1.69 0-2.47-1.216-2.47-3.704s.78-3.704 2.47-3.704zm13.451 10.448c4.218 0 5.985-3.059 5.985-6.744s-1.767-6.745-5.985-6.745c-4.216 0-5.983 3.06-5.983 6.745s1.767 6.744 5.983 6.744zm0-10.448c1.692 0 2.47 1.215 2.47 3.704s-.778 3.704-2.47 3.704c-1.69 0-2.47-1.216-2.47-3.704s.78-3.704 2.47-3.704z"/></g></g></svg>