<svg xmlns="http://www.w3.org/2000/svg" viewBox="0 0 247.905 116.193"><defs><style>.cls-2{fill:#434448}.cls-6{fill:#202427}.cls-7{fill:#b1b1b1}.cls-10{fill:#d3d3d3}.cls-13{fill:#9d9e99}.cls-15{fill:#fffdff}.cls-16{fill:#ffc490}.cls-22{fill:#616163}.cls-23{fill:#9aa0ac}.cls-29{fill:#5aaa1f}</style></defs><g id="Слой_2" data-name="Слой 2"><g id="Слой_1-2" data-name="Слой 1"><path d="M61.507.791c17.717.254 35.364 2.992 53.078 2.553 16.45-.409 32.778-3.555 49.232-3.333s33.798 4.372 45.321 16.12c7.326 7.469 11.634 17.286 16.686 26.448 4.415 8.009 9.501 15.667 13.257 24.005s6.153 17.588 4.785 26.63-7.066 17.778-15.641 20.956a36.788 36.788 0 01-11.887 1.78 149.823 149.823 0 01-39.852-4.35c-15.787-3.915-31.079-10.43-47.303-11.604-18.39-1.332-36.46 4.285-54.467 8.247s-37.545 6.148-54.297-1.555c-5.334-2.452-10.32-5.955-13.648-10.79C3.705 91.442 2.197 86.1 1.26 80.773a83.6 83.6 0 01.847-33.096c1.628-7.097 3.89-14 5.305-21.153.75-3.797 1.274-7.987 3.222-11.405 4.943-8.675 18.85-11.202 27.709-12.723A126.246 126.246 0 0161.507.791z" fill="#ecffdd"/><path class="cls-2" d="M138.017 98.989h46.652v3.255h-46.652z"/><rect class="cls-2" x="88.42" y="87.481" width="53.936" height="16.158" rx="7.415" ry="7.415"/><path fill="#b0bf60" d="M69.822 43.193h111.592V93.41H69.822z"/><path fill="#999a9b" d="M83.306 93.41h98.108v7.439H83.306z"/><path d="M247.721 86.442a14.934 14.934 0 00-14.695-12.561h-2.82a11.621 11.621 0 01-8.528-3.726c-4.498-4.857-11.896-12.81-12.682-13.427a22.025 22.025 0 00-10.645-4.606l-2.317-.33a22.752 22.752 0 00-3.218-.23h-11.402v53.472h60.91a5.596 5.596 0 005.58-5.58V87.83a5.522 5.522 0 00-.183-1.388z" fill="#e0e0df"/><path class="cls-2" d="M134.183 105.499c.022-.308.037-.617.037-.93a12.787 12.787 0 10-25.573 0c0 .313.015.622.037.93z"/><circle class="cls-6" cx="121.511" cy="105.499" r="10.694"/><circle class="cls-7" cx="121.511" cy="105.499" r="6.51"/><path d="M181.414 105.499h60.91a5.596 5.596 0 005.58-5.58v-.93h-66.49v6.51z" fill="#68696b"/><path class="cls-2" d="M235.546 105.499c.022-.308.037-.617.037-.93a12.787 12.787 0 10-25.573 0c0 .313.015.622.037.93z"/><circle class="cls-6" cx="222.874" cy="105.499" r="10.694"/><circle class="cls-7" cx="222.874" cy="105.499" r="6.51"/><path d="M220.305 73.9l-.022-.025c-4.498-4.857-11.896-12.81-12.682-13.428a22.025 22.025 0 00-10.644-4.605l-2.318-.331a22.756 22.756 0 00-3.217-.229h-6.753V94.34h23.079a3.92 3.92 0 003.2-1.658l9.747-13.79a3.958 3.958 0 00-.39-4.993z" fill="#ebe7dc"/><path class="cls-10" d="M207.6 60.447a22.025 22.025 0 00-10.643-4.605l-2.318-.331a22.756 22.756 0 00-3.217-.229h-6.753v18.134h35.189c-4.524-4.883-11.495-12.37-12.257-12.969z"/><path d="M211.097 71.625a1.17 1.17 0 00-.18-.944c-.4-.447-1.331-.311-6.024 1.259a25.326 25.326 0 01-3.732.809c-.837.13-1.565.208-2.023-.225-.304-.288-.372-.691-.494-1.484-.196-1.262.05-1.51-.18-1.933-.53-.971-2.708-1.29-3.417-.45-.287.34-.191 1.051 0 2.473a6.17 6.17 0 00.584 2.293c.069.13.153.288.26.458h10.705c3.888-1.158 4.388-1.656 4.501-2.256z" fill="#f2af7c"/><rect x="186.994" y="76.206" width="7.904" height="1.86" rx=".854" ry=".854" fill="#c6c2ba"/><path class="cls-13" d="M216.02 69.75h-1.903a4.036 4.036 0 00-4.023 4.023c0 .036.004.072.005.108h9.759c-1.166-1.258-2.495-2.69-3.838-4.132zm6.39 4.48l-2.504-1.328a2.592 2.592 0 01-1.073-2.133v-6.255c0-.86.483-1.308 1.073-.995l2.503 1.328a2.592 2.592 0 011.073 2.133v6.255c0 .86-.482 1.308-1.073.995z"/><path d="M221.912 72.29l-1.509-.963a2.016 2.016 0 01-.646-1.545V65.25c0-.623.29-.947.646-.72l1.509.962a2.016 2.016 0 01.647 1.545v4.532c0 .623-.291.947-.647.72z" fill="#dfdfdf"/><rect class="cls-13" x="219.309" y="72.995" width="1.86" height="4.185" rx=".854" ry=".854" transform="rotate(25.215 220.239 75.087)"/><path class="cls-15" d="M243.876 81.057a.922.922 0 00-.79-.434h-2.97a4.079 4.079 0 00-4.018 4.712 4.152 4.152 0 004.142 3.425h3.858s1.802-.743 1.572-1.78a27.637 27.637 0 00-1.794-5.923z"/><rect class="cls-15" x="241.356" y="100.442" width="4.495" height="2.092" rx=".96" ry=".96"/><path class="cls-16" d="M194.56 67.264a1.94 1.94 0 001.82-2.031l-.823-1.774c-.169-.967.513-1.123.723-2.082l.1-.458v-1.406a1.832 1.832 0 10-3.64 0v5.72a1.94 1.94 0 001.82 2.031z"/><path d="M189.48 67.3c.074-.17.538-1.05.671-1.293a6.626 6.626 0 011.537-1.58 2.57 2.57 0 011.022-.365 2.046 2.046 0 01.899.239c.515.375.603.625 1.14.792.316.099.811-.68 1.282-.809a.848.848 0 01.672.16 8.268 8.268 0 011.194.953 3.913 3.913 0 01.927 1.59c.063.284.13.592.192.917a12.873 12.873 0 01.251 2.102c.016.676-1.84.399-1.835.808.006.554.467 4.377.435 4.53l-6.35.247c-.019-1.957.112-4.83-.232-5.003-.083-.042-.124-.089-.517.307-.43.432-.717.721-1.094.719-.444-.003-.743-.597-.726-1.674.001-.034.048-.562.104-1.047a7.93 7.93 0 01.428-1.593z" fill="#db6300"/><path d="M197.4 57.727a.839.839 0 01-.615 1.024c-.726.108-1.02-.566-1.978-.54a1.208 1.208 0 00-.944.315c-.406.52.197 1.476-.135 1.708-.22.155-.594-.19-.809 0-.175.155-.064.332-.023.679.048.41.037.38.428.76a1.753 1.753 0 01.36.72c.129.362.11.467.018.564a.633.633 0 01-.719 0c-.372-.233-.207.103-.289-.654-.135-1.255-.415-1.132-.63-2.608-.157-1.088-.234-1.679.136-2.158a2.03 2.03 0 011.169-.63 5.123 5.123 0 012.113 0 6.16 6.16 0 01.989.18c.613.17.874.279.93.64z" fill="#84734e"/><path class="cls-16" d="M199.97 73.069c-.263-.417-.875-.29-3.962 1.175a12.657 12.657 0 01-2.455.756c-.55.122-1.03.195-1.33-.21a2.903 2.903 0 01-.326-1.385c-.019-.172-.255-1.518-.407-2.427a91.004 91.004 0 01-.053-.315.467.467 0 00-.52-.381 2.012 2.012 0 01-.213.01c-.59 0-1.238-.203-1.738.155.018.203.542 2.796.565 3.042a7.755 7.755 0 00.385 2.141 3.558 3.558 0 00.739 1.302c.212.214.652.564 1.952.503a7.065 7.065 0 002.1-.42c4.798-1.808 5.289-2.361 5.382-3.064a1.488 1.488 0 00-.118-.882z"/><path d="M186.267 63.393a6.277 6.277 0 00.624-2.841c0-2.26-1-4.107-2.222-4.107V73.88h2.368v-8.754a2.355 2.355 0 00-.77-1.734z" fill="#696a6b"/><path class="cls-13" transform="rotate(33.137 210.937 71.357)" d="M209.208 70.45h3.458v1.814h-3.458z"/><path d="M212.129 67.894a.814.814 0 00-1.363-.89l-3.96 6.068a.812.812 0 00-.042.809h1.457z" fill="#676d6c"/><rect class="cls-10" x="237.908" y="82.793" width="1.705" height="4.223" rx=".782" ry=".782"/><path fill="#718e22" d="M69.822 62.373h111.592v31.055H69.822z"/><path class="cls-22" d="M35 112.756c-.016 1.073-.81 1.362-3.128 2.243s-4.096 1.783-4.67.696 1.408-1.987 3.156-3.562c1.74-1.567 4.66-.568 4.642.623z"/><path class="cls-23" d="M31.711 113.407c.746.015 1.609-.07 1.687-.07.654 0 .707-.676 1.005-1.658a3.075 3.075 0 00-1.87-.299c-.836 0-1.426-.169-1.924.277a2.566 2.566 0 00.055.698c.399.813.511 1.042 1.047 1.052z"/><path d="M36.363 81.022H33.18c-.544 0-2.933-.488-2.933.261 0 1.446-.96 3.805-.96 11.499 0 .844.666 5.22.749 7.21.11 2.656.137 9.826.429 11.48a.411.411 0 00.059.116 1.44 1.44 0 001.256.617c.437.005.962.01 1.386.01a1.528 1.528 0 001.458-.824c.926-1.652.553-8.093.553-15.293a42.447 42.447 0 01.722-4.353c.56-4.28 1.225-8.29.464-10.723z" fill="#ff9511"/><path class="cls-22" d="M37.162 112.756c.016 1.073.81 1.362 3.128 2.243s4.096 1.783 4.67.696-1.407-1.987-3.156-3.562c-1.74-1.567-4.66-.568-4.642.623z"/><path class="cls-23" d="M40.39 113.408c-.421.01-1.293-.078-1.702-.078-.66 0-.714-.758-1.015-1.858a2.84 2.84 0 011.89-.335c.842 0 1.438-.19 1.94.31a3.179 3.179 0 01-.055.782c-.402.91-.516 1.167-1.057 1.179z"/><path d="M35.799 81.02h3.183c.544 0 1.948-.595 1.982.11.148 3.043 1.331 8.504 1.331 16.199 0 1.441-.45 3.896-.435 5.207a68.429 68.429 0 01-.163 8.937.366.366 0 01-.058.115 1.44 1.44 0 01-1.257.617c-.437.005-.962.01-1.386.01a1.528 1.528 0 01-1.458-.825c-.926-1.65-.918-5.83-.918-13.031a63.692 63.692 0 00-.72-6.615c-.403-3.8-.668-8.91-.101-10.724z" fill="#fc8c12"/><path d="M39.516 61.382c.931 0-3.374-.583-3.374-1.705a1.883 1.883 0 00-1.686-2.031h-.028a1.883 1.883 0 00-1.687 2.031c0 1.122-4.304 1.705-3.373 1.705" fill="#f2ad7e"/><path class="cls-16" d="M37.64 53.992a.211.211 0 00-.023.002 2.604 2.604 0 00-.013-1.222 3.676 3.676 0 00-3.162-2.814 3.676 3.676 0 00-3.163 2.814 2.604 2.604 0 00-.012 1.222.211.211 0 00-.024-.002c-.284.04-.433.644-.332 1.348a1.657 1.657 0 00.548 1.166 3.936 3.936 0 001.237 2.601 2.623 2.623 0 003.492 0 3.936 3.936 0 001.237-2.601 1.657 1.657 0 00.547-1.166c.101-.704-.047-1.307-.331-1.348z"/><path d="M35.848 57.604c0 .504-.63.912-1.406.912s-1.406-.408-1.406-.912.63 0 1.406 0 1.406-.504 1.406 0z" fill="#fff"/><path d="M34.443 49.958a3.676 3.676 0 00-3.162 2.814 1.77 1.77 0 00-.074.674.56.56 0 00.318-.08c.169-.113.145-.287.315-.798a2.176 2.176 0 01.41-.87c.331-.351.899-.489 1.016-.34.168.216-.628.976-.483 1.137.143.16 1.088-.41 1.209-.483.578-.35.855-.634 1.04-.532.168.093.016.377.217.58.217.22.53.025 1.233.17.32.065.48.098.605.241.283.327.026.83.193.919.08.043.24-.021.404-.156a1.575 1.575 0 00-.078-.462 3.676 3.676 0 00-3.163-2.814z" fill="#3e3724"/><path class="cls-29" d="M34.442 50.849a3.321 3.321 0 013.223 2.177 2.711 2.711 0 00.132-.828 3.375 3.375 0 00-6.71 0 2.711 2.711 0 00.132.828 3.321 3.321 0 013.223-2.177z"/><path d="M34.442 51.491c1.532 0 2.821.558 3.223 1.319a1.068 1.068 0 00.132-.502c0-1.005-1.502-1.82-3.355-1.82s-3.355.815-3.355 1.82a1.068 1.068 0 00.132.502c.401-.761 1.69-1.319 3.223-1.319z" fill="#468211"/><path class="cls-29" d="M38.36 61.043c-1.08 0-2.385.23-3.918.24-1.533-.01-2.838-.24-3.917-.24a6.414 6.414 0 00-5.728 5.09c-.344 1.49-1.575 2.935-1.575 4.727 0 .968 2.74.899 3.917.63.91-.21.882-4.786 1.403-2.274.585 2.82 1.072 7.43 1.527 9.491a29.565 29.565 0 00-.13 3.43 60.87 60.87 0 008.693-.25c.408-.05 1.275-.01 2.337-.083.521-.036.257-.516.227-1.019-.146-2.404-1.643-10.156-1.132-12.665.513-2.514.771 3.16 1.68 3.37 1.178.269 3.918.338 3.918-.63 0-2.29-1.567-4.077-2.052-5.887a5.264 5.264 0 00-5.25-3.93z"/><path class="cls-16" d="M32.948 75.91c0 .195.335 1.747-.29 1.922a16.792 16.792 0 01-3.047 0 17.488 17.488 0 01-4.842-.907c-1.63-.611-1.632-3.645-1.379-5.876.07-.604 2.492-.313 3.54-.24.227.015.46.115.418.313a25.904 25.904 0 00-.82 3.7c.653.163 1.865.416 2.756.67a11.835 11.835 0 002.684.454c.68.037.98-.161.98-.037z"/><path class="cls-16" d="M33.375 76.525a.323.323 0 01-.453-.003c-.143-.125-.423-.581-.283-.594l.794-.502a6.906 6.906 0 01.689-.378c.4-.024.256.38.047.517a1.996 1.996 0 00-.25.168 1.118 1.118 0 00-.157.181.465.465 0 00-.041.18c-.022.249-.346.431-.346.431z"/><path class="cls-16" d="M35.738 77.298a.854.854 0 01.206.423 1.16 1.16 0 01-.037.568 1.242 1.242 0 01-.266.568 1.134 1.134 0 01-.471.315 1.34 1.34 0 01-.544.072 3.414 3.414 0 01-.695-.066 1.832 1.832 0 01-.696-.278 4.035 4.035 0 01-.61-.508c-.249-.271-.447-.453-.478-.502-.222-.347.607-1.261.688-1.376a2.04 2.04 0 01.521-.51c.161-.12.261-.192.327-.157.12.063-.045.394.06.822a.948.948 0 00.266.52c.466.384 1.32-.278 1.729.109z"/><path fill="#c49463" d="M33.659 68.373h18.344V81.14H33.659z"/><path class="cls-16" d="M33.395 76.548a.323.323 0 01-.453-.004c-.144-.124-.424-.58-.284-.593l.795-.503a6.906 6.906 0 01.688-.377c.4-.025.256.38.047.516a1.996 1.996 0 00-.25.168 1.118 1.118 0 00-.157.181.465.465 0 00-.04.18c-.023.25-.346.432-.346.432z"/><path class="cls-16" d="M35.757 77.32a.854.854 0 01.206.423 1.16 1.16 0 01-.037.569 1.242 1.242 0 01-.266.568 1.134 1.134 0 01-.471.314 1.34 1.34 0 01-.544.073 3.414 3.414 0 01-.695-.067 1.832 1.832 0 01-.695-.278 4.035 4.035 0 01-.611-.508c-.249-.27-.447-.453-.478-.501-.222-.347.607-1.262.688-1.377a2.04 2.04 0 01.521-.51c.161-.119.261-.191.327-.157.12.064-.045.395.06.822a.948.948 0 00.266.52c.466.384 1.32-.277 1.73.11z"/><path fill="#efddd9" d="M46.365 69.95h4.282v6.666h-4.282z"/><path d="M47.091 74.137h2.829v.387h-2.829zm0 .62h2.829v.387h-2.829zm0 .62h2.829v.387h-2.829z" fill="#ccc"/></g></g></svg>