<svg xmlns="http://www.w3.org/2000/svg" viewBox="0 0 69.001 69"><defs><style>.cls-1{fill:#5aaa1f}</style></defs><g id="Слой_2" data-name="Слой 2"><g id="Слой_1-2" data-name="Слой 1"><path class="cls-1" d="M17.537 39.43h-2.273v-2.274a1.36 1.36 0 10-2.72 0v2.274h-2.273a1.36 1.36 0 000 2.72h2.273v2.272a1.36 1.36 0 102.72 0V42.15h2.273a1.36 1.36 0 000-2.72zm7.042 3.22h1.772v1.772a1.86 1.86 0 003.72 0V42.65h1.774a1.86 1.86 0 000-3.72H30.07v-1.774a1.86 1.86 0 00-3.72 0v1.774h-1.77a1.86 1.86 0 100 3.72zm14.307 0h1.773v1.772a1.86 1.86 0 003.72 0V42.65h1.773a1.86 1.86 0 100-3.72h-1.773v-1.774a1.86 1.86 0 00-3.72 0v1.774h-1.773a1.86 1.86 0 100 3.72z"/><path class="cls-1" d="M61.851 0H26.505a7.16 7.16 0 00-7.151 7.151v6.86A28.164 28.164 0 003.917 55.085L.097 66.552a1.849 1.849 0 00.45 1.903 1.898 1.898 0 001.903.449l11.463-3.82A28.178 28.178 0 0056.421 40.79c0-.827-.042-1.676-.127-2.58h2.827l6.703 6.714a1.883 1.883 0 002.028.407 1.853 1.853 0 001.15-1.719V7.152A7.159 7.159 0 0061.85 0zM7.721 55.442a1.857 1.857 0 00-.194-1.583 24.547 24.547 0 117.614 7.615 1.86 1.86 0 00-.995-.288 1.824 1.824 0 00-.588.096l-8.756 2.917zm15.353-42.39v-5.9a3.435 3.435 0 013.43-3.432h35.347a3.434 3.434 0 013.43 3.431v31.966l-4.072-4.08a1.847 1.847 0 00-1.317-.547h-4.19a28.202 28.202 0 00-32.628-21.438z"/></g></g></svg>