<svg xmlns="http://www.w3.org/2000/svg" viewBox="0 0 41.112 46"><defs xmlns="http://www.w3.org/2000/svg"><style>g{display:none}g:target,g:target&gt;*{display:inline}</style></defs><g id="black" fill="#464646" data-name="Слой 2"><path d="M5.27 36.56h8.338L20.556 46l6.948-9.44h8.338a5.256 5.256 0 005.27-5.27V5.27A5.256 5.256 0 0035.843 0H5.27A5.286 5.286 0 000 5.27v25.972a5.266 5.266 0 005.27 5.318zM20.557 6.708a5.367 5.367 0 11-5.366 5.367 5.358 5.358 0 015.366-5.367zm0 12.459a10.695 10.695 0 0110.686 10.685H9.87a10.695 10.695 0 0110.685-10.685z" id="Слой_1-2" data-name="Слой 1"/></g><g id="white" fill="#FFF" data-name="Слой 2"><path d="M5.27 36.56h8.338L20.556 46l6.948-9.44h8.338a5.256 5.256 0 005.27-5.27V5.27A5.256 5.256 0 0035.843 0H5.27A5.286 5.286 0 000 5.27v25.972a5.266 5.266 0 005.27 5.318zM20.557 6.708a5.367 5.367 0 11-5.366 5.367 5.358 5.358 0 015.366-5.367zm0 12.459a10.695 10.695 0 0110.686 10.685H9.87a10.695 10.695 0 0110.685-10.685z" id="Слой_1-2" data-name="Слой 1"/></g></svg>