<svg xmlns="http://www.w3.org/2000/svg" viewBox="0 0 69.1 75.091"><defs xmlns="http://www.w3.org/2000/svg"><style>g{display:none}g:target,g:target&gt;*{display:inline}</style></defs><g id="green" data-name="Слой 2"><path d="M4.622 75.002a5.689 5.689 0 01-4.4-3.983 5.863 5.863 0 01-.166-2.375c.2-1.152 1.98-7.022 3.695-12.187a5.246 5.246 0 011.2-2.046c.89-.961 1.361-1.206 5.956-3.09a1062.51 1062.51 0 004.12-1.7 151.48 151.48 0 017.613-2.9l.928-.327.202.7c.888 3.073 6.17 18.584 6.421 18.858.04.043.067-.053.066-.23 0-.166.14-3.343.313-7.06l.314-6.756-1.305-2.59c-.526-.875-1.614-2.349-1.4-2.525.133-.109.371.102.719.28a12.493 12.493 0 005.23 1.502 12.852 12.852 0 006.029-1.494c.393-.183.817-.502.977-.322.215.243-1.545 2.442-1.571 2.494l-1.338 2.646.325 7.047c.18 3.876.35 7.022.378 6.991.19-.2 5.649-16.253 6.447-18.958l.173-.585 2.567.938c3.022 1.105 3.335 1.226 6.072 2.344 8.684 3.55 8.781 3.595 9.735 4.504a5.997 5.997 0 011.237 1.738 67.5 67.5 0 01.659 1.976c1.952 6.06 3.073 9.811 3.226 10.795a5.756 5.756 0 01-2.04 5.146 7.241 7.241 0 01-2.143 1.108c-.436.128-2.054.136-30.081.147-24.006.01-29.723-.006-30.158-.086zm28.89-31.346a16.54 16.54 0 01-9.455-6.454 24.837 24.837 0 01-3.385-6.67c-.168-.53-.184-.551-.372-.5a2.132 2.132 0 01-1.28-.12c-1.213-.62-2.05-2.59-2.447-5.76-.242-1.935-.065-2.91.64-3.531a2.467 2.467 0 011.84-.533h.722l-.054-1.246c-.19-4.4-.171-5.507.116-6.989A14.658 14.658 0 0132.527.123a15.178 15.178 0 0111.973 3.5 14.95 14.95 0 014.64 7.804 17.753 17.753 0 01.29 5.324 169.454 169.454 0 00-.09 2.934l.001.403h.72c1.186 0 1.797.29 2.211 1.05.406.745.43 1.785.091 3.931-.524 3.326-1.807 5.25-3.346 5.02a4.482 4.482 0 00-.397-.048 3.339 3.339 0 00-.351.83 20.47 20.47 0 01-7.741 10.63 18.112 18.112 0 01-3.372 1.692 6.478 6.478 0 01-3.643.463z" id="Слой_1-2" data-name="Слой 1" fill="#c6e0b2"/></g><g id="green2" data-name="Слой 2"><path d="M4.622 75.002a5.689 5.689 0 01-4.4-3.983 5.863 5.863 0 01-.166-2.375c.2-1.152 1.98-7.022 3.695-12.187a5.246 5.246 0 011.2-2.046c.89-.961 1.361-1.206 5.956-3.09a1062.51 1062.51 0 004.12-1.7 151.48 151.48 0 017.613-2.9l.928-.327.202.7c.888 3.073 6.17 18.584 6.421 18.858.04.043.067-.053.066-.23 0-.166.14-3.343.313-7.06l.314-6.756-1.305-2.59c-.526-.875-1.614-2.349-1.4-2.525.133-.109.371.102.719.28a12.493 12.493 0 005.23 1.502 12.852 12.852 0 006.029-1.494c.393-.183.817-.502.977-.322.215.243-1.545 2.442-1.571 2.494l-1.338 2.646.325 7.047c.18 3.876.35 7.022.378 6.991.19-.2 5.649-16.253 6.447-18.958l.173-.585 2.567.938c3.022 1.105 3.335 1.226 6.072 2.344 8.684 3.55 8.781 3.595 9.735 4.504a5.997 5.997 0 011.237 1.738 67.5 67.5 0 01.659 1.976c1.952 6.06 3.073 9.811 3.226 10.795a5.756 5.756 0 01-2.04 5.146 7.241 7.241 0 01-2.143 1.108c-.436.128-2.054.136-30.081.147-24.006.01-29.723-.006-30.158-.086zm28.89-31.346a16.54 16.54 0 01-9.455-6.454 24.837 24.837 0 01-3.385-6.67c-.168-.53-.184-.551-.372-.5a2.132 2.132 0 01-1.28-.12c-1.213-.62-2.05-2.59-2.447-5.76-.242-1.935-.065-2.91.64-3.531a2.467 2.467 0 011.84-.533h.722l-.054-1.246c-.19-4.4-.171-5.507.116-6.989A14.658 14.658 0 0132.527.123a15.178 15.178 0 0111.973 3.5 14.95 14.95 0 014.64 7.804 17.753 17.753 0 01.29 5.324 169.454 169.454 0 00-.09 2.934l.001.403h.72c1.186 0 1.797.29 2.211 1.05.406.745.43 1.785.091 3.931-.524 3.326-1.807 5.25-3.346 5.02a4.482 4.482 0 00-.397-.048 3.339 3.339 0 00-.351.83 20.47 20.47 0 01-7.741 10.63 18.112 18.112 0 01-3.372 1.692 6.478 6.478 0 01-3.643.463z" id="Слой_1-2" data-name="Слой 1" fill="#2c540f"/></g></svg>