<svg xmlns="http://www.w3.org/2000/svg" width="24" height="24"><defs xmlns="http://www.w3.org/2000/svg"><style>g{display:none}g:target,g:target *{display:inline}</style></defs><g id="green" fill="#5aaa1f"><path d="M1.393 19.777L19.778 1.393a2 2 0 112.828 2.828L4.22 22.606a2 2 0 11-2.828-2.829z"/><path d="M22.606 19.777L4.221 1.393A2 2 0 001.393 4.22l18.385 18.385a2 2 0 102.828-2.829z"/></g><g id="grey" fill="#adadad"><path d="M1.393 19.777L19.778 1.393a2 2 0 112.828 2.828L4.22 22.606a2 2 0 11-2.828-2.829z"/><path fill="#adadad;" d="M22.606 19.777L4.221 1.393A2 2 0 001.393 4.22l18.385 18.385a2 2 0 102.828-2.829z"/></g></svg>