<svg xmlns="http://www.w3.org/2000/svg" viewBox="0 0 18 19.078"><defs><style>.cls-1{fill:#5aaa1f}</style></defs><g id="Слой_2" data-name="Слой 2"><g id="Слой_1-2" data-name="Слой 1"><path class="cls-1" d="M18 2.453a1.003 1.003 0 00-1-1h-.919c.003.042.013.082.013.125v1.719a1.594 1.594 0 01-3.188 0V1.578c0-.043.01-.083.013-.125H5.081c.003.042.013.082.013.125v1.719a1.594 1.594 0 01-3.188 0V1.578c0-.043.01-.083.013-.125H1a1.003 1.003 0 00-1 1v3h18zM0 18.078a1.003 1.003 0 001 1h16a1.003 1.003 0 001-1V8.641H0z"/><path class="cls-1" d="M3.531 3.813a.784.784 0 00.781-.782V.781a.781.781 0 00-1.562 0v2.25a.784.784 0 00.781.781zm10.938 0a.784.784 0 00.781-.782V.781a.781.781 0 00-1.563 0v2.25a.784.784 0 00.782.781z"/></g></g></svg>