<svg xmlns="http://www.w3.org/2000/svg" viewBox="0 0 10.092 13.033"><g id="Слой_2" data-name="Слой 2"><path d="M2.933 7.133H7.16a2.954 2.954 0 002.932-3.008A2.936 2.936 0 007.16 1.192H4.288l.216-.215a.54.54 0 000-.763L4.447.157a.54.54 0 00-.763 0l-1.22 1.22a.54.54 0 00-.111.595.533.533 0 00.118.179l1.22 1.22a.54.54 0 00.762 0l.057-.057a.54.54 0 000-.762l-.149-.15H7.16A1.741 1.741 0 018.88 4.2a1.723 1.723 0 01-1.719 1.722h-4.23a2.97 2.97 0 000 5.941h2.9l-.194.194a.54.54 0 000 .762l.057.057a.54.54 0 00.762 0l1.22-1.22a.533.533 0 00.119-.18.539.539 0 00-.112-.593l-1.22-1.22a.54.54 0 00-.763 0l-.057.056a.54.54 0 000 .762l.171.171H2.933A1.741 1.741 0 011.21 8.855a1.723 1.723 0 011.722-1.722z" fill="#5aaa1f" id="Слой_1-2" data-name="Слой 1"/></g></svg>