<svg xmlns="http://www.w3.org/2000/svg" viewBox="0 0 70.935 70.924"><defs xmlns="http://www.w3.org/2000/svg"><style>g{display:none}g:target,g:target&gt;*{display:inline}</style></defs><path d="M35.462 0a35.462 35.462 0 1035.473 35.462A35.46 35.46 0 0035.462 0zm0 5.665A29.738 29.738 0 0160.03 18.612a33.692 33.692 0 01-12.579 8.241 7.148 7.148 0 01-4.862.033 22.642 22.642 0 00-14.24 0 7.148 7.148 0 01-4.862-.033 33.717 33.717 0 01-12.58-8.241A29.726 29.726 0 0135.462 5.665zM6.557 28.37a85.504 85.504 0 0112.635 5.14 2.119 2.119 0 011.126 1.93v.01a7.502 7.502 0 002.61 5.443 17.162 17.162 0 015.274 13.393 37.808 37.808 0 01-1.773 9.557A29.667 29.667 0 016.557 28.37zm57.821 0a29.667 29.667 0 01-19.872 35.473 38.308 38.308 0 01-1.773-9.557 17.181 17.181 0 015.275-13.393 7.513 7.513 0 002.61-5.442v-.011a2.109 2.109 0 011.125-1.93 85.226 85.226 0 0112.635-5.14z" id="green" fill="#c6e0b2"/><path d="M35.462 0a35.462 35.462 0 1035.473 35.462A35.46 35.46 0 0035.462 0zm0 5.665A29.738 29.738 0 0160.03 18.612a33.692 33.692 0 01-12.579 8.241 7.148 7.148 0 01-4.862.033 22.642 22.642 0 00-14.24 0 7.148 7.148 0 01-4.862-.033 33.717 33.717 0 01-12.58-8.241A29.726 29.726 0 0135.462 5.665zM6.557 28.37a85.504 85.504 0 0112.635 5.14 2.119 2.119 0 011.126 1.93v.01a7.502 7.502 0 002.61 5.443 17.162 17.162 0 015.274 13.393 37.808 37.808 0 01-1.773 9.557A29.667 29.667 0 016.557 28.37zm57.821 0a29.667 29.667 0 01-19.872 35.473 38.308 38.308 0 01-1.773-9.557 17.181 17.181 0 015.275-13.393 7.513 7.513 0 002.61-5.442v-.011a2.109 2.109 0 011.125-1.93 85.226 85.226 0 0112.635-5.14z" id="green2" fill="#2c540f"/></svg>