<svg xmlns="http://www.w3.org/2000/svg" viewBox="0 0 18.133 24"><defs><style>.cls-1{fill:#5aaa1f}</style></defs><g id="Слой_2" data-name="Слой 2"><g id="Слой_1-2" data-name="Слой 1"><path class="cls-1" d="M12.268 6.4h5.865l-6.4-6.4v5.865a.535.535 0 00.535.535z"/><path class="cls-1" d="M10.667 6.669V0H.977A.977.977 0 000 .978v22.044A.98.98 0 00.981 24h16.171a.982.982 0 00.981-.98V7.466h-6.668a.798.798 0 01-.798-.798zM12.8 18.667h-2.057L9.067 16.32l-.877 1.227h.886l.728 1.12h-4.47l2.704-3.787-2.249-3.147h2.058l1.22 1.708 1.219-1.708h2.057l-2.248 3.147z"/></g></g></svg>