<svg xmlns="http://www.w3.org/2000/svg" viewBox="0 0 32.884 40"><g id="Слой_2" data-name="Слой 2"><g id="Слой_1-2" data-name="Слой 1"><path d="M32.884 4.028a2.007 2.007 0 00-.933-1.645 1.795 1.795 0 00-1.844-.044 14.31 14.31 0 01-2.422 1 12.9 12.9 0 01-3.4.377 11.768 11.768 0 01-3.732-.51 11.048 11.048 0 01-2.6-1.134A30.477 30.477 0 0014.73.628 15.07 15.07 0 009.865.006 23.437 23.437 0 003.6 1.139l-1.222.444A3.671 3.671 0 00.044 5.272L0 38.134a1.659 1.659 0 00.555 1.31A1.772 1.772 0 001.89 40a1.867 1.867 0 001.333-.555 1.659 1.659 0 00.555-1.311V22.78a18.529 18.529 0 012.489-1.066 12.59 12.59 0 013.6-.489 12.99 12.99 0 013.665.489 25.748 25.748 0 012.644 1.2 15.577 15.577 0 003.244 1.444 17.104 17.104 0 004.866.622 15.56 15.56 0 007.51-1.822 1.668 1.668 0 001.09-1.622z" fill="#7b3dc1" id="a"/></g></g></svg>