<svg xmlns="http://www.w3.org/2000/svg" viewBox="0 0 16.87 17"><g id="Слой_2" data-name="Слой 2"><path d="M2.452 0h8.16a1.26 1.26 0 011.256 1.256v5.292H9.58v3.177h2.287v2.84a1.26 1.26 0 01-1.256 1.256H7.888V4.38a2.652 2.652 0 00-1.325-2.27L2.453 0zm7.999 7.418h3.986l-1.28-1.28 1.008-1.008 2.497 2.497a.73.73 0 010 1.02l-2.497 2.497-1.008-1.008 1.28-1.28h-3.986V7.418zM.716.368l5.336 2.74a1.545 1.545 0 01.716 1.272v12.01c0 .498-.322.74-.716.537L.716 14.19A1.546 1.546 0 010 12.917V.905C0 .407.322.165.716.368z" fill="#464646" id="Слой_1-2" data-name="Слой 1"/></g></svg>