<svg xmlns="http://www.w3.org/2000/svg" viewBox="0 0 36.829 46"><defs><style>.cls-1{fill:none;stroke:#5aaa1f;stroke-miterlimit:10;stroke-width:3px}</style></defs><g id="Слой_2" data-name="Слой 2"><g id="Слой_1-2" data-name="Слой 1"><circle class="cls-1" cx="8.859" cy="5.909" r="4.409"/><path class="cls-1" d="M13.386 11.517H4.333A2.832 2.832 0 001.5 14.349v10.226a2.83 2.83 0 002.832 2.83h8.966v.003h.088a2.831 2.831 0 002.83-2.832V14.349a2.831 2.831 0 00-2.83-2.832zM8.859 27.409H5.034c-.004.05-.017.1-.017.153v14.756A2.182 2.182 0 007.199 44.5h3.317a2.18 2.18 0 002.183-2.182V27.564c0-.055-.01-.105-.015-.154z"/><circle class="cls-1" cx="27.973" cy="5.909" r="4.409"/><path class="cls-1" d="M32.5 11.517h-9.054a2.832 2.832 0 00-2.832 2.832v10.226a2.83 2.83 0 002.831 2.83h8.967v.003h.088a2.831 2.831 0 002.83-2.832V14.349a2.831 2.831 0 00-2.83-2.832zm-4.527 15.892h-3.826c-.004.05-.017.1-.017.153v14.756a2.182 2.182 0 002.182 2.182h3.318a2.18 2.18 0 002.183-2.182V27.564c0-.055-.011-.105-.015-.154z"/></g></g></svg>