<svg xmlns="http://www.w3.org/2000/svg" viewBox="0 0 33 33"><g id="Слой_2" data-name="Слой 2"><path d="M4.832 4.832a16.5 16.5 0 1023.336 0 16.501 16.501 0 00-23.336 0zm12.33 2.09a2.543 2.543 0 010 5.085 2.564 2.564 0 01-2.543-2.577 2.527 2.527 0 012.543-2.508zm3.587 17.031a1.666 1.666 0 01-.348.592 4.54 4.54 0 01-3.344 1.498 10.942 10.942 0 01-1.846-.104 2.693 2.693 0 01-2.124-2.717l.418-2.717c.278-1.567.557-3.17.836-4.736 0-.105.034-.21.034-.314 0-.662-.209-.905-.87-.975a6.974 6.974 0 01-.836-.14.613.613 0 01-.453-.626c.035-.279.21-.453.557-.523a3.187 3.187 0 01.592-.035h4.807c.592 0 .94.28.94.871a6.991 6.991 0 01-.174 1.463c-.313 1.811-.662 3.587-.975 5.398-.105.592-.244 1.185-.314 1.777a2.461 2.461 0 00.07.87.69.69 0 00.766.558 3.218 3.218 0 00.94-.279 6.494 6.494 0 01.697-.348c.418-.14.732.104.627.487z" fill="#5aaa1f" id="Слой_1-2" data-name="Слой 1"/></g></svg>