<svg xmlns="http://www.w3.org/2000/svg" viewBox="0 0 197.125 63.25"><defs><style>.cls-3{fill:#5aaa1f}.cls-4{fill:#383b40}.cls-6{fill:#434448}.cls-7{fill:#d3d3d3}.cls-9{fill:#202427}.cls-10{fill:#b1b1b1}.cls-12{fill:#282a2d}.cls-16{fill:#eaeaea}.cls-18{fill:#c0bfc1}.cls-19{fill:#3a3a3d}</style></defs><g id="Слой_2" data-name="Слой 2"><g id="Слой_1-2" data-name="Слой 1"><path d="M33.292 12.25a2.006 2.006 0 00-2-2L4.25 11.625c-1.1 0-2.086 1.525-2.086 2.625a2.786 2.786 0 01-.726 1.436l-.132.147h31.986z" fill="#539b13"/><path d="M2 56.75h74.708a2.006 2.006 0 002-2v-2.833H0v2.833a2.006 2.006 0 002 2z" fill="#68696b"/><path class="cls-3" d="M33.292 47.208V15.833H1.306l-.286.32A4.118 4.118 0 000 18.82v33.096h33.292v-4.709z"/><path class="cls-4" d="M76.708 47.5H33.292v4.417h45.416V49.5a2.006 2.006 0 00-2-2z"/><path d="M17.792 17.312H.309A3.99 3.99 0 000 18.832v27.792c.822-.207 1.703-.43 2.619-.665v1.632a2.006 2.006 0 002 2H6.75a2.006 2.006 0 002-2v-.96a3.004 3.004 0 012.2-2.89c5.314-1.485 9.842-2.928 9.842-3.537V19.992a2.862 2.862 0 00-3-2.68z" fill="#7bbe49"/><path class="cls-6" d="M17.573 48.656a8.094 8.094 0 00-8.094 8.094h16.188a8.094 8.094 0 00-8.094-8.094z"/><path class="cls-7" d="M16.375 19.208H2.792a1.003 1.003 0 00-1 1v10.625a1.003 1.003 0 001 1h3.833a1.003 1.003 0 001-1v-.005a1.12 1.12 0 011.12-1.12h7.63a1.003 1.003 0 001-1v-8.5a1.003 1.003 0 00-1-1z"/><rect x="11.479" y="37" width="5.75" height="1.75" rx=".875" ry=".875" fill="#58931b"/><circle class="cls-9" cx="17.573" cy="56.75" r="6.5"/><circle class="cls-10" cx="17.573" cy="56.75" r="3.957"/><path fill="#49494d" d="M84.958 45h48.667v8.793H84.958z"/><path class="cls-6" d="M65.49 48.656a8.094 8.094 0 00-8.094 8.094h16.187a8.094 8.094 0 00-8.093-8.094z"/><circle class="cls-9" cx="65.49" cy="56.75" r="6.5"/><circle class="cls-10" cx="65.49" cy="56.75" r="3.957"/><path class="cls-4" d="M84.959 55.625V45h-2.77v10.625h-1.178v1.125h5.125v-1.125h-1.177zM133.625 45h37.583v8.549a3 3 0 01-3 3h-31.583a3 3 0 01-3-3V45z"/><path class="cls-6" d="M144.323 48.454a8.094 8.094 0 00-8.094 8.093h16.188a8.094 8.094 0 00-8.094-8.093z"/><circle class="cls-9" cx="144.323" cy="56.547" r="6.5"/><circle class="cls-10" cx="144.323" cy="56.547" r="3.957"/><path class="cls-6" d="M160.51 48.454a8.094 8.094 0 00-8.093 8.093h16.187a8.094 8.094 0 00-8.094-8.093z"/><circle class="cls-9" cx="160.51" cy="56.547" r="6.5"/><circle class="cls-10" cx="160.51" cy="56.547" r="3.957"/><path class="cls-12" d="M171.208 45h25.25v4.063a2 2 0 01-2 2h-23.25V45z"/><rect x="27.813" y="48.334" width="27.438" height="10.166" rx="1" ry="1" fill="#dbd9df"/><path d="M40.354 43.5a.5.5 0 01-.5-.5 1.502 1.502 0 00-1.5-1.5H36.25a.5.5 0 01-.5-.5V10.638a.498.498 0 01.13-.336l3.583-3.929a1.494 1.494 0 00.391-1.01V1a.5.5 0 01.5-.5h155.771a.5.5 0 01.5.5v42a.5.5 0 01-.5.5z" fill="#e6e6e6"/><path d="M196.125 1v42H40.355a2.002 2.002 0 00-2-2H36.25V10.638l3.582-3.928a1.996 1.996 0 00.522-1.348V1h155.771m0-1H40.355a1 1 0 00-1 1v4.362a1 1 0 01-.262.674l-3.582 3.928a1 1 0 00-.261.674V41a1 1 0 001 1h2.104a1 1 0 011 1 1 1 0 001 1h155.771a1 1 0 001-1V1a1 1 0 00-1-1z" fill="#ccc"/><path class="cls-12" d="M43.208 45h29.833v2.5H43.208z"/><rect class="cls-16" x="42.073" y="2.458" width="2.125" height="39.125" rx="1.06" ry="1.06"/><rect class="cls-16" x="46.49" y="2.458" width="2.125" height="39.125" rx="1.06" ry="1.06"/><rect class="cls-16" x="50.906" y="2.458" width="2.125" height="39.125" rx="1.06" ry="1.06"/><rect class="cls-16" x="55.323" y="2.458" width="2.125" height="39.125" rx="1.06" ry="1.06"/><rect class="cls-16" x="59.74" y="2.458" width="2.125" height="39.125" rx="1.06" ry="1.06"/><rect class="cls-16" x="64.156" y="2.458" width="2.125" height="39.125" rx="1.06" ry="1.06"/><rect class="cls-16" x="68.573" y="2.458" width="2.125" height="39.125" rx="1.06" ry="1.06"/><rect class="cls-16" x="72.99" y="2.458" width="2.125" height="39.125" rx="1.06" ry="1.06"/><rect class="cls-16" x="77.406" y="2.458" width="2.125" height="39.125" rx="1.06" ry="1.06"/><rect class="cls-16" x="81.823" y="2.458" width="2.125" height="39.125" rx="1.06" ry="1.06"/><rect class="cls-16" x="86.24" y="2.458" width="2.125" height="39.125" rx="1.06" ry="1.06"/><rect class="cls-16" x="90.656" y="2.458" width="2.125" height="39.125" rx="1.06" ry="1.06"/><rect class="cls-16" x="95.073" y="2.458" width="2.125" height="39.125" rx="1.06" ry="1.06"/><rect class="cls-16" x="99.49" y="2.458" width="2.125" height="39.125" rx="1.06" ry="1.06"/><rect class="cls-16" x="103.906" y="2.458" width="2.125" height="39.125" rx="1.06" ry="1.06"/><rect class="cls-16" x="108.323" y="2.458" width="2.125" height="39.125" rx="1.06" ry="1.06"/><rect class="cls-16" x="112.74" y="2.458" width="2.125" height="39.125" rx="1.06" ry="1.06"/><rect class="cls-16" x="117.156" y="2.458" width="2.125" height="39.125" rx="1.06" ry="1.06"/><rect class="cls-16" x="121.573" y="2.458" width="2.125" height="39.125" rx="1.06" ry="1.06"/><rect class="cls-16" x="125.99" y="2.458" width="2.125" height="39.125" rx="1.06" ry="1.06"/><rect class="cls-16" x="130.406" y="2.458" width="2.125" height="39.125" rx="1.06" ry="1.06"/><rect class="cls-16" x="134.823" y="2.458" width="2.125" height="39.125" rx="1.06" ry="1.06"/><rect class="cls-16" x="139.24" y="2.458" width="2.125" height="39.125" rx="1.06" ry="1.06"/><rect class="cls-16" x="143.656" y="2.458" width="2.125" height="39.125" rx="1.06" ry="1.06"/><rect class="cls-16" x="148.073" y="2.458" width="2.125" height="39.125" rx="1.06" ry="1.06"/><rect class="cls-16" x="152.49" y="2.458" width="2.125" height="39.125" rx="1.06" ry="1.06"/><rect class="cls-16" x="156.906" y="2.458" width="2.125" height="39.125" rx="1.06" ry="1.06"/><rect class="cls-16" x="161.323" y="2.458" width="2.125" height="39.125" rx="1.06" ry="1.06"/><rect class="cls-16" x="165.74" y="2.458" width="2.125" height="39.125" rx="1.06" ry="1.06"/><rect class="cls-16" x="170.156" y="2.458" width="2.125" height="39.125" rx="1.06" ry="1.06"/><rect class="cls-16" x="174.573" y="2.458" width="2.125" height="39.125" rx="1.06" ry="1.06"/><rect class="cls-16" x="178.99" y="2.458" width="2.125" height="39.125" rx="1.06" ry="1.06"/><rect class="cls-16" x="183.406" y="2.458" width="2.125" height="39.125" rx="1.06" ry="1.06"/><rect class="cls-16" x="187.823" y="2.458" width="2.125" height="39.125" rx="1.06" ry="1.06"/><rect class="cls-16" x="192.24" y="2.458" width="2.125" height="39.125" rx="1.06" ry="1.06"/><rect class="cls-16" x="37.677" y="9.7" width="2.125" height="28.065" rx="1.063" ry="1.063"/><rect x="23.208" y="17.3" width="7.5" height="14.656" rx="2" ry="2" fill="#529319"/><path class="cls-3" d="M.625 37H0v11.25h.625a2.006 2.006 0 002-2V39a2.006 2.006 0 00-2-2z"/><rect class="cls-7" x=".461" y="41.344" width="1.703" height="2.875" rx=".852" ry=".852"/><circle class="cls-18" cx="36.354" cy="50.354" r="1.104"/><rect class="cls-18" x="50.13" y="48.604" width=".396" height="9.458" rx=".198" ry=".198"/><rect class="cls-18" x="32.536" y="48.604" width=".396" height="9.458" rx=".198" ry=".198"/><rect class="cls-19" x="89.25" y="46.208" width="1.583" height="6" rx=".792" ry=".792"/><rect class="cls-19" x="92.458" y="46.208" width="1.583" height="6" rx=".792" ry=".792"/><rect class="cls-7" x=".808" y="45.147" width="1.009" height="1.009" rx=".504" ry=".504"/><path class="cls-7" d="M1.313 37.75H0v2.875h1.313a.854.854 0 00.851-.852v-1.171a.854.854 0 00-.852-.852z"/><path d="M32.536 12.094V6.688H11.72a5.422 5.422 0 00-5.406 5.406 5.365 5.365 0 00.089.948h26.045a5.365 5.365 0 00.09-.948z" fill="#5faa18"/><rect class="cls-12" x="185.177" y="49.417" width="8.833" height="3.177" rx="1" ry="1"/><rect class="cls-12" x="192.01" y="49.417" width="2" height="6.208" rx="1" ry="1"/></g></g></svg>