<svg xmlns="http://www.w3.org/2000/svg" viewBox="0 0 131.282 69.399"><defs><style>.cls-2{fill:#5aaa1f}.cls-3{fill:#383b40}.cls-5{fill:#434448}.cls-6{fill:#d3d3d3}.cls-8{fill:#202427}.cls-9{fill:#b1b1b1}.cls-11{fill:#c0bfc1}.cls-13{fill:#282a2d}</style></defs><g id="Слой_2" data-name="Слой 2"><g id="Слой_1-2" data-name="Слой 1"><path d="M2 62.9h120.708a2.006 2.006 0 002-2v-2.834H0v2.833a2.006 2.006 0 002 2z" fill="#68696b"/><path class="cls-2" d="M25.292 53.358V21.983H1.306l-.286.319A4.118 4.118 0 000 24.97v33.096h25.292v-4.708z"/><path class="cls-3" d="M108.708 53.65H25.292v4.416h85.416v-2.417a2.006 2.006 0 00-2-2z"/><path d="M17.792 23.461H.309A3.99 3.99 0 000 24.982v27.791c.822-.207 1.703-.43 2.619-.665v1.632a2.006 2.006 0 002 2H6.75a2.006 2.006 0 002-2v-.96a3.004 3.004 0 012.2-2.89c5.314-1.485 9.842-2.927 9.842-3.536V26.142a2.862 2.862 0 00-3-2.68z" fill="#7bbe49"/><path class="cls-5" d="M17.573 54.806a8.094 8.094 0 00-8.094 8.093h16.188a8.094 8.094 0 00-8.094-8.093z"/><path class="cls-6" d="M16.375 25.358H2.792a1.003 1.003 0 00-1 1v10.625a1.003 1.003 0 001 1h3.833a1.003 1.003 0 001-1v-.005a1.12 1.12 0 011.12-1.12h7.63a1.003 1.003 0 001-1v-8.5a1.003 1.003 0 00-1-1z"/><rect x="11.479" y="43.149" width="5.75" height="1.75" rx=".875" ry=".875" fill="#58931b"/><circle class="cls-8" cx="17.573" cy="62.899" r="6.5"/><circle class="cls-9" cx="17.573" cy="62.899" r="3.957"/><path class="cls-3" d="M127.948 58.066h-37a2.215 2.215 0 01-2.208-2.208 2.215 2.215 0 012.208-2.209h39.208v2.209a2.215 2.215 0 01-2.208 2.208z"/><path class="cls-5" d="M99.49 54.806a8.094 8.094 0 00-8.094 8.093h16.187a8.094 8.094 0 00-8.093-8.093z"/><circle class="cls-8" cx="99.49" cy="62.899" r="6.5"/><circle class="cls-9" cx="99.49" cy="62.899" r="3.957"/><rect x="27.813" y="54.484" width="27.438" height="10.166" rx="1" ry="1" fill="#dbd9df"/><path class="cls-2" d="M.625 43.15H0V54.4h.625a2.006 2.006 0 002-2v-7.25a2.006 2.006 0 00-2-2z"/><rect class="cls-6" x=".461" y="47.493" width="1.703" height="2.875" rx=".852" ry=".852"/><circle class="cls-11" cx="36.354" cy="56.503" r="1.104"/><rect class="cls-11" x="50.13" y="54.754" width=".396" height="9.458" rx=".198" ry=".198"/><rect class="cls-11" x="32.536" y="54.754" width=".396" height="9.458" rx=".198" ry=".198"/><rect class="cls-6" x=".808" y="51.296" width="1.009" height="1.009" rx=".504" ry=".504"/><path class="cls-6" d="M1.313 43.9H0v2.874h1.313a.854.854 0 00.851-.851V44.75a.854.854 0 00-.852-.852z"/><path d="M25.292 15.629H9.047c-3.754 0-6.825 2.432-6.825 5.406 0 .323-.961.64-.892.948h23.962z" fill="#569910"/><rect class="cls-13" x="57.802" y="60.16" width="31.104" height="5.479" rx="1" ry="1"/><rect class="cls-13" x="121.323" y="55.962" width="8.833" height="3.177" rx="1" ry="1"/><rect x="27.407" y="39.024" width="103.875" height="13.625" rx="1" ry="1" fill="#c9c9c9"/><rect x="27.907" y=".5" width="102.875" height="44.597" rx=".5" ry=".5" fill="#e6e6e6"/><path d="M130.282 1v43.597H28.407V1h101.875m0-1H28.407a1.003 1.003 0 00-1 1v43.597a1.003 1.003 0 001 1h101.875a1.003 1.003 0 001-1V1a1.003 1.003 0 00-1-1z" fill="#ccc"/><rect class="cls-13" x="128.156" y="55.962" width="2" height="6.208" rx="1" ry="1"/><path d="M52.417 48.014a1.076 1.076 0 00-1.073 1.073v4.562h2.146v-4.562a1.076 1.076 0 00-1.073-1.073zm26.927 0a1.076 1.076 0 00-1.073 1.073v4.562h2.146v-4.562a1.076 1.076 0 00-1.073-1.073zm26.927 0a1.076 1.076 0 00-1.073 1.073v4.562h2.146v-4.562a1.076 1.076 0 00-1.073-1.073z" fill="#aaa"/></g></g></svg>