<svg xmlns="http://www.w3.org/2000/svg" viewBox="0 0 115.25 55.586"><defs><style>.cls-2{fill:#68696b}.cls-4{fill:#d3d3d3}.cls-6{fill:#282a2d}.cls-8{fill:#434448}.cls-9{fill:#202427}.cls-10{fill:#b1b1b1}.cls-16{fill:#c0bfc1}</style></defs><g id="Слой_2" data-name="Слой 2"><g id="Слой_1-2" data-name="Слой 1"><path d="M35.93 15.417h-9.514a3.07 3.07 0 00-2.038.774l-7.763 6.89-4.743 4.209a3.07 3.07 0 01-2.038.774h-.002a3.07 3.07 0 00-2.168.896l-5.58 5.565 3.645-1.13c.917 0 .604 3.855.604 3.855a1.672 1.672 0 01-1.666 1.667H0v5.812h39V18.487a3.07 3.07 0 00-3.07-3.07z" fill="#569910"/><path class="cls-2" d="M0 47.083a2.006 2.006 0 002 2h35a2.006 2.006 0 002-2V44.73H0z"/><path d="M6.333 36.25s.313-3.854-.604-3.854l-3.644 1.129-1.497 1.493A2 2 0 000 36.434v1.483h4.667a1.672 1.672 0 001.666-1.667z" fill="#ebe7dc"/><rect class="cls-4" x="3.594" y="33.948" width="1.25" height="2.844" rx=".625" ry=".625"/><path d="M109.681 40.992h-72.78a2.069 2.069 0 000 4.137h74.849V43.06a2.075 2.075 0 00-2.069-2.068z" fill="#383b40"/><rect class="cls-6" x="30.833" y="43.039" width="78.917" height="4.137" rx="2.069" ry="2.069"/><path d="M39 39.917v-24.5H26.416a3.07 3.07 0 00-2.038.774l-7.763 6.89v21.648H39z" fill="#7bbe49"/><path class="cls-2" d="M16.619 49.083H37a2.006 2.006 0 002-2V44.73H16.615v4.313c0 .014.004.027.004.041z"/><path class="cls-8" d="M16.615 40.992a8.094 8.094 0 00-8.094 8.094h16.187a8.094 8.094 0 00-8.093-8.094z"/><circle class="cls-9" cx="16.615" cy="49.086" r="6.5"/><circle class="cls-10" cx="16.615" cy="49.086" r="3.957"/><rect class="cls-6" x="104.917" y="44.232" width="8.833" height="3.177" rx="1" ry="1"/><rect class="cls-6" x="111.75" y="44.232" width="2" height="6.208" rx="1" ry="1"/><path class="cls-8" d="M81.385 40.992a8.094 8.094 0 00-8.093 8.094h16.187a8.094 8.094 0 00-8.094-8.094z"/><circle class="cls-9" cx="81.385" cy="49.086" r="6.5"/><circle class="cls-10" cx="81.385" cy="49.086" r="3.957"/><path fill="#e6e6e6" d="M41.25.5h73.5v38.991h-73.5z"/><path d="M114.25 1v37.992h-72.5V1h72.5m1-1h-74.5v39.992h74.5V0z" fill="#ccc"/><path d="M31.945 9.063a5.422 5.422 0 00-5.406 5.406v.948H39V9.063z" fill="#5faa18"/><path class="cls-4" d="M37.563 16.104h-9.585a3.07 3.07 0 00-2.037.774l-7.764 6.89v3.212h19.386z"/><rect x="31.813" y="30.917" width="5.75" height="1.75" rx=".875" ry=".875" fill="#58931b"/><rect x="40.75" y="41.086" width="18.893" height="7" rx="1" ry="1" fill="#dbd9df"/><circle class="cls-16" cx="46.632" cy="42.477" r=".76"/><rect class="cls-16" x="56.118" y="41.272" width=".273" height="6.513" rx=".039" ry=".039"/><rect class="cls-16" x="44.003" y="41.272" width=".273" height="6.513" rx=".039" ry=".039"/></g></g></svg>