<svg xmlns="http://www.w3.org/2000/svg" viewBox="0 0 85.811 35.887"><defs><style>.cls-5{fill:#d3d3d3}.cls-7{fill:#7bbe49}.cls-8{fill:#434448}.cls-9{fill:#202427}.cls-10{fill:#b1b1b1}.cls-11{fill:#58931b}.cls-13{fill:#b2b2b2}</style></defs><g id="Слой_2" data-name="Слой 2"><g id="Слой_1-2" data-name="Слой 1"><path d="M83.97 17.281l-1.128-6.19a1.922 1.922 0 011.541-2.229c.014-.002.028 0 .042-.003l-.857-5.368A3.28 3.28 0 0080.578 0H64.531v29.384h1.714a5.733 5.733 0 01-.089-.972 5.792 5.792 0 015.776-5.775H85.81v-3.784a1.924 1.924 0 01-1.84-1.572zM44.59 0H36.6a5.73 5.73 0 00-2.781.675l-10.6 6.014-.104.06-6.37 3.614c-.465.263-4.74 1.402-8.216 2.37a14.512 14.512 0 00-5.43 2.83h2.974c.672 0 .5.918.5 2.041a2.048 2.048 0 01-2.042 2.042H0v3.106a4.477 4.477 0 01.984-.115h15.074a4.539 4.539 0 014.525 4.525 4.46 4.46 0 01-.61 2.222h25.329V0z" fill="#569910"/><path fill="#66aa17" d="M45.302 0v29.384h19.229V0H45.302z"/><path d="M20.583 27.162a4.539 4.539 0 00-4.525-4.525H.984a4.477 4.477 0 00-.984.115v4.887c0 .96 1.229 1.745 2.73 1.745h17.243a4.46 4.46 0 00.61-2.222zm45.573 1.25a5.733 5.733 0 00.09.972H82.82a3.28 3.28 0 002.99-3.491v-3.256H71.93a5.792 5.792 0 00-5.775 5.775z" fill="#68696b"/><path d="M6.573 16.604c0-1.123.172-2.041-.5-2.041H3.099a12.908 12.908 0 00-1.617 1.605S0 17.753 0 18.217v.429h4.531a2.048 2.048 0 002.042-2.042z" fill="#ebe7dc"/><path class="cls-5" d="M84.425 7.859c-.014.002-.028 0-.042.003a1.922 1.922 0 00-1.541 2.23l1.129 6.19a1.924 1.924 0 001.84 1.571v-1.314z"/><rect x="61.396" y="12.968" width="17.948" height="1.75" rx=".875" ry=".875" fill="#4c7c14"/><path class="cls-7" d="M44.61 0h-7.989a5.73 5.73 0 00-2.782.675L23.24 6.69l-.105.06v22.635h22.167V0z"/><path class="cls-8" d="M16.615 21.293a8.094 8.094 0 00-8.094 8.094h16.187a8.094 8.094 0 00-8.093-8.094z"/><circle class="cls-9" cx="16.615" cy="29.387" r="6.5"/><circle class="cls-10" cx="16.615" cy="29.387" r="3.957"/><path class="cls-8" d="M73.385 21.293a8.094 8.094 0 00-8.093 8.094h16.187a8.094 8.094 0 00-8.094-8.094z"/><circle class="cls-9" cx="73.385" cy="29.387" r="6.5"/><circle class="cls-10" cx="73.385" cy="29.387" r="3.957"/><rect class="cls-11" x="31.813" y="11.218" width="5.75" height="1.75" rx=".875" ry=".875"/><path class="cls-5" d="M42.706 1.692h-6.525a4.68 4.68 0 00-2.272.552l-8.657 4.912-.086.048v5.488h18.105v-11z"/><rect class="cls-11" x="37.521" y="15.817" width="5.75" height="1.75" rx=".875" ry=".875"/><path class="cls-7" d="M45.302 0v29.384h19.229V0H45.302z"/><rect class="cls-11" x="47.333" y="15.817" width="5.75" height="1.75" rx=".875" ry=".875"/><path fill="#88c950" d="M47.333 2.692h15.281v11H47.333z"/><path class="cls-8" d="M23.969 27.822h41.75v1.563h-41.75z"/><rect class="cls-8" x="26.253" y="21.911" width="35.143" height="2.353" rx="1.176" ry="1.176"/><rect class="cls-5" x="4.094" y="15.072" width="1.25" height="2.844" rx=".625" ry=".625"/><rect class="cls-5" x="2.917" y="15.773" width=".635" height="1.443" rx=".318" ry=".318"/><rect class="cls-13" x="83.543" y="9.729" width=".646" height="1.833" rx=".323" ry=".323" transform="rotate(-9.775 83.866 10.646)"/><rect class="cls-13" x="83.988" y="12.146" width=".646" height="1.833" rx=".323" ry=".323" transform="rotate(-9.775 84.31 13.062)"/><rect class="cls-13" x="84.418" y="14.646" width=".646" height="1.833" rx=".323" ry=".323" transform="rotate(-9.775 84.741 15.562)"/></g></g></svg>