<svg xmlns="http://www.w3.org/2000/svg" viewBox="0 0 38.022 40"><g id="Слой_2" data-name="Слой 2"><g id="Слой_1-2" data-name="Слой 1"><rect x="18.847" y="6.561" width="5.577" height="33.439" rx="2.125" ry="2.125" fill="#7bbe49"/><path d="M34.606 0H9.275v.008A2.968 2.968 0 007.478.61L1.165 5.437A2.983 2.983 0 00.008 7.665a2.892 2.892 0 000 .416 2.983 2.983 0 001.157 2.228l6.313 4.827a2.968 2.968 0 001.797.602v.008h25.331a3.416 3.416 0 003.416-3.416V3.416A3.416 3.416 0 0034.606 0zM11.2 19.75h21.053v.003a1.236 1.236 0 01.748.252l2.63 2.01a1.243 1.243 0 01.483.93c.002.028.003.057.003.086 0 .029 0 .057-.003.086a1.243 1.243 0 01-.482.929l-2.63 2.01a1.237 1.237 0 01-.75.252v.003h-21.05a1.423 1.423 0 01-1.424-1.423v-3.715a1.423 1.423 0 011.424-1.423z" fill="#569910"/></g></g></svg>