<svg xmlns="http://www.w3.org/2000/svg" viewBox="0 0 213.27 22.785"><defs><style>.cls-1{fill:#464646}</style></defs><g id="Слой_2" data-name="Слой 2"><g id="Слой_1-2" data-name="Слой 1"><path class="cls-1" d="M17.29.341a2.367 2.367 0 01.735.5 2.225 2.225 0 01.49.743 2.4 2.4 0 01.175.918v17.746a2.238 2.238 0 01-.184.91 2.368 2.368 0 01-.498.735 2.232 2.232 0 01-.744.49 2.407 2.407 0 01-.92.175 2.217 2.217 0 01-.892-.175 2.012 2.012 0 01-.69-.49 2.34 2.34 0 01-.455-.735 2.443 2.443 0 01-.167-.91V4.708H4.55v15.54a2.462 2.462 0 01-.166.91 2.376 2.376 0 01-.455.735 2.016 2.016 0 01-.692.49 2.214 2.214 0 01-.892.175 2.41 2.41 0 01-.92-.175 2.238 2.238 0 01-.742-.49 2.387 2.387 0 01-.5-.735 2.254 2.254 0 01-.183-.91V2.502a2.418 2.418 0 01.175-.918A2.227 2.227 0 01.665.84 2.367 2.367 0 011.4.341a2.24 2.24 0 01.91-.183h14.07a2.248 2.248 0 01.91.183zm8.049 22.217a2.354 2.354 0 01-1.496-.7 2.104 2.104 0 01-.604-1.54V2.432a2.242 2.242 0 01.175-.884 2.35 2.35 0 01.482-.726 2.158 2.158 0 01.726-.49 2.302 2.302 0 01.893-.175h11.777a2.244 2.244 0 01.884.175 2.091 2.091 0 01.708.49 2.433 2.433 0 01.472.726 2.226 2.226 0 01.176.884 2.224 2.224 0 01-.176.883 2.427 2.427 0 01-.472.726 2.091 2.091 0 01-.708.49 2.236 2.236 0 01-.884.176h-9.503v4.06h7.56a1.967 1.967 0 01.884.166 2.404 2.404 0 01.726.499 2.242 2.242 0 01.49.743 2.373 2.373 0 01.175.902 2.177 2.177 0 01-.175.875 2.206 2.206 0 01-.49.708 2.23 2.23 0 01-.726.473 2.33 2.33 0 01-.883.166h-7.56v4.708h9.502a2.143 2.143 0 01.884.183 2.2 2.2 0 01.708.499 2.4 2.4 0 01.472.735 2.286 2.286 0 01.176.892 2.223 2.223 0 01-.176.884 2.317 2.317 0 01-.472.718 2.146 2.146 0 01-.708.48 2.03 2.03 0 01-.884.159zM52.464.158a8.313 8.313 0 013.316.665 8.516 8.516 0 014.532 4.506 8.22 8.22 0 01.674 3.316 8.115 8.115 0 01-.673 3.29 8.501 8.501 0 01-1.829 2.678 8.72 8.72 0 01-2.704 1.802 8.313 8.313 0 01-3.316.665h-4.13v3.237a2.239 2.239 0 01-.175.884 2.093 2.093 0 01-.49.71 2.447 2.447 0 01-.726.472 2.322 2.322 0 01-1.767 0 2.439 2.439 0 01-.727-.473 2.079 2.079 0 01-.49-.709 2.239 2.239 0 01-.175-.884V2.433a2.242 2.242 0 01.175-.884A2.3 2.3 0 0145.176.333a2.237 2.237 0 01.884-.175zm-4.13 4.55v7.822h4.2a3.642 3.642 0 001.496-.315 4.01 4.01 0 001.242-.858 4.218 4.218 0 00.85-1.242 3.61 3.61 0 00-.009-2.966 4.366 4.366 0 00-.857-1.252 4.162 4.162 0 00-1.243-.866 3.518 3.518 0 00-1.479-.323zm17.779 17.85a2.354 2.354 0 01-1.496-.7 2.104 2.104 0 01-.603-1.54V2.432a2.242 2.242 0 01.174-.884 2.35 2.35 0 01.482-.726 2.158 2.158 0 01.726-.49 2.302 2.302 0 01.893-.175h11.777a2.244 2.244 0 01.884.175 2.091 2.091 0 01.708.49 2.433 2.433 0 01.473.726 2.226 2.226 0 01.176.884 2.224 2.224 0 01-.176.883 2.427 2.427 0 01-.473.726 2.091 2.091 0 01-.708.49 2.236 2.236 0 01-.884.176h-9.503v4.06h7.561a1.967 1.967 0 01.884.166 2.404 2.404 0 01.725.499 2.242 2.242 0 01.49.743 2.373 2.373 0 01.175.902 2.177 2.177 0 01-.174.875 2.206 2.206 0 01-.49.708 2.23 2.23 0 01-.726.473 2.33 2.33 0 01-.884.166h-7.56v4.708h9.502a2.143 2.143 0 01.884.183 2.2 2.2 0 01.708.499 2.4 2.4 0 01.473.735 2.286 2.286 0 01.176.892 2.223 2.223 0 01-.176.884 2.317 2.317 0 01-.473.718 2.146 2.146 0 01-.708.48 2.03 2.03 0 01-.884.159zm20.721 0a2.229 2.229 0 01-.884-.175 2.439 2.439 0 01-.726-.473 2.079 2.079 0 01-.49-.709 2.239 2.239 0 01-.175-.884V2.397a2.242 2.242 0 01.174-.883 2.082 2.082 0 01.49-.709 2.439 2.439 0 01.727-.472 2.237 2.237 0 01.884-.175h7.997a6.375 6.375 0 016.405 6.405 6.485 6.485 0 01-.377 2.205 7.42 7.42 0 01-1.04 1.942 7.465 7.465 0 011.583 2.284 6.733 6.733 0 01.586 2.791 6.52 6.52 0 01-.542 2.652 6.929 6.929 0 01-1.47 2.152 6.79 6.79 0 01-2.187 1.444 6.896 6.896 0 01-2.678.525zm2.274-17.85v4.06h5.53a2.093 2.093 0 00.788-.184 1.994 1.994 0 00.638-.455 2.38 2.38 0 00.438-.656 1.84 1.84 0 00.167-.77 1.732 1.732 0 00-.185-.788 2.162 2.162 0 00-.48-.639 2.194 2.194 0 00-.674-.42 2.103 2.103 0 00-.78-.148zm0 8.61v4.69h5.829a2.095 2.095 0 00.935-.219 2.963 2.963 0 00.797-.569 2.741 2.741 0 00.56-.814 2.294 2.294 0 00.21-.953 1.905 1.905 0 00-.21-.893 2.039 2.039 0 00-.56-.674 2.665 2.665 0 00-.797-.42 2.938 2.938 0 00-.935-.149zM116.53 0a11.066 11.066 0 013.028.411 11.832 11.832 0 012.721 1.147 11.186 11.186 0 012.31 1.776 11.437 11.437 0 011.785 2.31 11.61 11.61 0 011.155 2.721 11.087 11.087 0 01.411 3.028 10.95 10.95 0 01-.901 4.427 11.635 11.635 0 01-2.45 3.614 11.486 11.486 0 01-3.622 2.441 11.472 11.472 0 01-8.873 0 11.288 11.288 0 01-3.605-2.44 11.538 11.538 0 01-2.415-3.615 11.138 11.138 0 01-.883-4.427 11.276 11.276 0 01.402-3.028 11.563 11.563 0 011.138-2.721 11.354 11.354 0 011.767-2.31 11.08 11.08 0 012.292-1.776A11.677 11.677 0 01113.503.41 11.066 11.066 0 01116.53 0zm.018 4.55a6.57 6.57 0 00-2.66.543 6.848 6.848 0 00-3.614 3.64 6.66 6.66 0 00-.534 2.66 6.825 6.825 0 1013.65 0 6.66 6.66 0 00-.534-2.66 6.873 6.873 0 00-1.46-2.17 6.971 6.971 0 00-2.18-1.47 6.633 6.633 0 00-2.668-.543zm21.226 4.498a2.082 2.082 0 001.436-.56 1.864 1.864 0 00.438-.63 2.029 2.029 0 00.157-.805 1.931 1.931 0 00-.175-.805 2.33 2.33 0 00-.473-.683 2.449 2.449 0 00-.682-.481 2.015 2.015 0 00-.787-.201h-5.233a2.307 2.307 0 01-.919-.184 2.308 2.308 0 01-1.242-1.243 2.3 2.3 0 01-.185-.918 2.3 2.3 0 01.185-.92 2.308 2.308 0 011.242-1.242 2.307 2.307 0 01.92-.184h5.528a6.491 6.491 0 012.6.526 6.707 6.707 0 013.56 3.57 6.584 6.584 0 01.526 2.625 6.268 6.268 0 01-.473 2.432 6.84 6.84 0 01-1.295 2.03 6.848 6.848 0 011.295 2.03 6.27 6.27 0 01.473 2.432 6.522 6.522 0 01-.525 2.617 6.66 6.66 0 01-1.435 2.117 6.842 6.842 0 01-2.126 1.427 6.49 6.49 0 01-2.6.524h-5.529a2.307 2.307 0 01-.919-.183 2.307 2.307 0 01-1.242-1.243 2.379 2.379 0 010-1.837 2.308 2.308 0 011.242-1.242 2.307 2.307 0 01.92-.184h5.214a2.088 2.088 0 00.813-.158 2.206 2.206 0 00.665-.428 2.01 2.01 0 00.455-.64 1.936 1.936 0 00.166-.804 2.08 2.08 0 00-.157-.814 2.01 2.01 0 00-1.093-1.094 2.088 2.088 0 00-.814-.157h-2.766a2.302 2.302 0 01-.918-.184 2.314 2.314 0 01-1.243-1.243 2.392 2.392 0 010-1.837 2.314 2.314 0 011.243-1.243 2.302 2.302 0 01.918-.183zm30.888 11.269a2.239 2.239 0 01-.175.884 2.079 2.079 0 01-.49.71 2.447 2.447 0 01-.726.472 2.322 2.322 0 01-1.767 0 2.439 2.439 0 01-.727-.473 2.093 2.093 0 01-.49-.709 2.239 2.239 0 01-.175-.884V8.593l-11.147 13.02a2.247 2.247 0 01-.787.682 2.515 2.515 0 01-1.9.14 2.085 2.085 0 01-.656-.385 2.35 2.35 0 01-.586-.761 2.17 2.17 0 01-.219-.972V2.397a2.242 2.242 0 01.175-.883 2.174 2.174 0 011.182-1.181 2.237 2.237 0 01.884-.175 2.309 2.309 0 01.892.175 2.416 2.416 0 01.735.472 2.19 2.19 0 01.499.709 2.15 2.15 0 01.183.883V14.14l11.218-13.125a2.545 2.545 0 01.831-.639 2.25 2.25 0 01.972-.218 2.178 2.178 0 01.935.192 2.282 2.282 0 01.7.499 2.327 2.327 0 01.456.709 2.393 2.393 0 01.183.822z"/><path d="M192.2 3.36a1.961 1.961 0 01.49.726 2.323 2.323 0 010 1.68 2.125 2.125 0 01-.49.744 2.202 2.202 0 01-.753.499 2.431 2.431 0 01-.857.175 2.29 2.29 0 01-.858-.149 2.04 2.04 0 01-.735-.473 6.651 6.651 0 00-2.283-1.522 7.073 7.073 0 00-2.599-.49 6.565 6.565 0 00-2.598.525 6.943 6.943 0 00-2.17 1.444 6.772 6.772 0 00-1.48 2.17 6.684 6.684 0 00-.542 2.686 6.835 6.835 0 004.051 6.283 6.578 6.578 0 002.669.577 6.71 6.71 0 002.581-.464 7.121 7.121 0 002.32-1.548 1.948 1.948 0 01.734-.464 2.55 2.55 0 011.715 0 2.057 2.057 0 01.735.446 2.213 2.213 0 01.499.753 2.322 2.322 0 01.166.857 2.437 2.437 0 01-.157.858 2.049 2.049 0 01-.473.735 11.409 11.409 0 01-8.138 3.377 10.783 10.783 0 01-4.357-.892 11.366 11.366 0 01-3.58-2.442 11.641 11.641 0 01-2.422-3.622 11.048 11.048 0 01-.893-4.419 11.22 11.22 0 01.385-2.922 11.548 11.548 0 012.818-5.023A11.083 11.083 0 01181 .43a11.263 11.263 0 013.133-.43 11.467 11.467 0 014.287.832 11.182 11.182 0 013.78 2.528zm14.017 1.348v15.61a2.146 2.146 0 01-.184.883 2.256 2.256 0 01-.49.71 2.326 2.326 0 01-1.618.647 2.229 2.229 0 01-.884-.175 2.326 2.326 0 01-.718-.473 2.14 2.14 0 01-.481-.709 2.239 2.239 0 01-.175-.884V4.707h-4.777a2.137 2.137 0 01-.884-.183 2.365 2.365 0 01-.718-.49 2.23 2.23 0 01-.481-.726 2.305 2.305 0 01-.175-.893A2.242 2.242 0 01196.89.158h14.104a2.14 2.14 0 01.884.183 2.49 2.49 0 01.726.49 2.168 2.168 0 01.49.727 2.305 2.305 0 01.176.892 2.24 2.24 0 01-.175.884 2.19 2.19 0 01-.49.717 2.346 2.346 0 01-.727.482 2.232 2.232 0 01-.884.175z" fill="#5aaa1f"/><circle class="cls-1" cx="116.565" cy="11.357" r="3.734"/></g></g></svg>