<svg xmlns="http://www.w3.org/2000/svg" viewBox="0 0 935.355 209"><defs><style>.cls-2{fill:#434448}.cls-6{fill:#202427}.cls-7{fill:#b1b1b1}.cls-10{fill:#d3d3d3}.cls-11{fill:#f2af7c}.cls-13{fill:#9d9e99}.cls-15{fill:#fffdff}.cls-16{fill:#ffc490}.cls-19{fill:#696a6b}.cls-20{fill:#676d6c}.cls-22{fill:#383b40}.cls-24{fill:#bf9766}.cls-31{fill:#606c6d}.cls-34{fill:#bcbcbb}</style></defs><g id="Слой_2" data-name="Слой 2"><g id="Слой_1-2" data-name="Слой 1"><path d="M467.677 175.502C233.464 175.502 38.871 189.97 0 209h935.355c-38.871-19.03-233.464-33.498-467.678-33.498z" fill="#cbdc70"/><path class="cls-2" d="M629.521 153.631h128.452v8.962H629.521z"/><rect class="cls-2" x="492.96" y="121.944" width="148.51" height="44.489" rx="12" ry="12"/><path fill="#b0bf60" d="M441.75 0h307.261v138.268H441.75z"/><path fill="#999a9b" d="M478.878 138.268h270.134v20.484H478.878z"/><path d="M931.584 119.082a41.119 41.119 0 00-40.464-34.585h-7.763a31.999 31.999 0 01-23.483-10.258c-12.384-13.374-32.753-35.272-34.918-36.973h-.001a60.645 60.645 0 00-29.308-12.68l-6.38-.912a62.645 62.645 0 00-8.86-.63H749.01v147.23h167.714a15.408 15.408 0 0015.363-15.363v-32.007a15.205 15.205 0 00-.504-3.822z" fill="#e0e0df"/><path class="cls-2" d="M618.963 171.554c.06-.846.102-1.698.102-2.56a35.207 35.207 0 10-70.414 0c0 .862.042 1.714.103 2.56z"/><circle class="cls-6" cx="584.072" cy="171.554" r="29.446"/><circle class="cls-7" cx="584.072" cy="171.554" r="17.924"/><path d="M749.011 171.554h167.714a15.408 15.408 0 0015.363-15.363v-2.56H749.01v17.923z" fill="#68696b"/><path class="cls-2" d="M898.058 171.554c.061-.846.103-1.698.103-2.56a35.207 35.207 0 10-70.414 0c0 .862.042 1.714.103 2.56z"/><circle class="cls-6" cx="863.167" cy="171.554" r="29.446"/><circle class="cls-7" cx="863.167" cy="171.554" r="17.924"/><path d="M856.095 84.547l-.062-.066c-12.383-13.373-32.753-35.272-34.918-36.973h-.001a60.645 60.645 0 00-29.308-12.68l-6.38-.912a62.656 62.656 0 00-8.86-.63h-18.593v107.542h63.546a10.793 10.793 0 008.813-4.563l26.837-37.97a10.897 10.897 0 00-1.074-13.748z" fill="#ebe7dc"/><path class="cls-10" d="M821.115 47.508h-.001a60.645 60.645 0 00-29.308-12.68l-6.38-.912a62.656 62.656 0 00-8.86-.63h-18.593v49.93h96.89c-12.456-13.443-31.65-34.06-33.748-35.708z"/><path class="cls-11" d="M830.741 78.285a3.22 3.22 0 00-.495-2.6c-1.104-1.23-3.666-.857-16.588 3.466a69.732 69.732 0 01-10.274 2.228c-2.307.36-4.31.575-5.571-.619-.838-.793-1.025-1.903-1.362-4.085-.537-3.475.141-4.156-.495-5.323-1.458-2.675-7.455-3.55-9.408-1.238-.79.935-.526 2.893 0 6.809.384 2.852.609 4.416 1.61 6.313.188.357.42.794.715 1.26h29.474c10.706-3.186 12.084-4.559 12.394-6.211z"/><rect x="764.374" y="90.898" width="21.764" height="5.121" rx="2" ry="2" fill="#c6c2ba"/><path class="cls-13" d="M844.297 73.12h-5.24a11.111 11.111 0 00-11.078 11.079c0 .1.012.198.015.298h26.869c-3.21-3.465-6.869-7.407-10.566-11.377zm17.592 12.338l-6.894-3.657c-1.625-.862-2.954-3.505-2.954-5.873V58.705c0-2.368 1.33-3.6 2.954-2.739l6.894 3.657c1.625.862 2.954 3.505 2.954 5.873v17.223c0 2.368-1.33 3.6-2.954 2.739z"/><path d="M860.52 80.115l-4.155-2.65c-.98-.624-1.78-2.539-1.78-4.254V60.733c0-1.716.8-2.609 1.78-1.984l4.154 2.65c.98.624 1.78 2.538 1.78 4.254v12.478c0 1.715-.8 2.608-1.78 1.984z" fill="#dfdfdf"/><rect class="cls-13" x="853.352" y="82.056" width="5.121" height="11.522" rx="1" ry="1" transform="rotate(25.215 855.912 87.817)"/><path class="cls-15" d="M920.995 104.255a2.538 2.538 0 00-2.172-1.194h-8.18a11.23 11.23 0 00-11.063 12.975 11.432 11.432 0 0011.403 9.429h10.624s4.962-2.047 4.33-4.9c-1.178-5.309-3.172-13.408-4.942-16.31z"/><rect class="cls-15" x="914.057" y="157.631" width="12.376" height="5.761" rx="2.25" ry="2.25"/><path class="cls-16" d="M785.207 66.279c2.758 0 5.014-2.518 5.014-5.595l-2.269-4.883c-.464-2.663 1.413-3.092 1.992-5.732l.277-1.263v-3.87c0-3.077-2.256-5.594-5.014-5.594s-5.013 2.517-5.013 5.594v15.748c0 3.077 2.256 5.595 5.013 5.595z"/><path d="M771.22 66.376c.205-.466 1.483-2.89 1.849-3.558a18.245 18.245 0 014.232-4.35 7.077 7.077 0 012.812-1.007 5.635 5.635 0 012.476.657c1.42 1.033 1.66 1.723 3.137 2.182.872.271 2.236-1.874 3.531-2.228a2.335 2.335 0 011.85.439 22.765 22.765 0 013.288 2.626 10.775 10.775 0 012.553 4.375c.173.784.357 1.634.528 2.527a35.446 35.446 0 01.692 5.788c.044 1.86-5.067 1.098-5.053 2.224.018 1.527 1.287 12.052 1.2 12.473l-17.485.681c-.053-5.39.308-13.301-.64-13.777-.23-.114-.34-.243-1.423.846-1.183 1.19-1.976 1.987-3.012 1.98-1.224-.006-2.047-1.642-1.998-4.609.001-.092.13-1.546.285-2.883a21.836 21.836 0 011.177-4.386z" fill="#db6300"/><path d="M793.028 40.017c.146.956-.14 2.587-1.693 2.82-2 .3-2.812-1.559-5.447-1.485a3.326 3.326 0 00-2.6.866c-1.117 1.432.544 4.063-.37 4.704-.608.426-1.638-.524-2.229 0-.481.426-.177.913-.064 1.868.133 1.13.102 1.045 1.178 2.093a4.827 4.827 0 01.99 1.981c.357 1 .304 1.288.053 1.555a1.744 1.744 0 01-1.98 0c-1.024-.642-.57.284-.796-1.802-.373-3.454-1.143-3.115-1.733-7.18-.434-2.995-.646-4.623.371-5.942a5.591 5.591 0 013.219-1.733c1.773-.492 3.274-.31 5.818 0a16.964 16.964 0 012.723.495c1.69.467 2.408.766 2.56 1.76z" fill="#84734e"/><path class="cls-16" d="M800.105 82.26c-.726-1.148-2.41-.8-10.911 3.238a34.849 34.849 0 01-6.759 2.08c-1.517.336-2.835.537-3.664-.578-.551-.74-.674-1.777-.896-3.815-.05-.472-.7-4.18-1.122-6.682l-.144-.865a1.286 1.286 0 00-1.434-1.052 5.54 5.54 0 01-.586.029c-1.623 0-3.408-.559-4.783.428.049.557 1.491 7.697 1.555 8.374a21.354 21.354 0 001.059 5.896 9.797 9.797 0 002.035 3.583c.585.59 1.795 1.554 5.375 1.388a19.453 19.453 0 005.781-1.156c13.213-4.981 14.564-6.503 14.82-8.44a4.096 4.096 0 00-.326-2.427z"/><path class="cls-19" d="M762.375 55.62a17.283 17.283 0 001.716-7.824c0-6.22-2.753-11.309-6.118-11.309v48.01h6.52V60.392a6.485 6.485 0 00-2.118-4.772z"/><path class="cls-13" transform="rotate(33.137 830.3 77.547)" d="M825.54 75.049h9.522v4.995h-9.522z"/><path class="cls-20" d="M833.582 68.013a2.24 2.24 0 00-3.752-2.45L818.924 82.27a2.237 2.237 0 00-.115 2.227h4.013z"/><rect class="cls-10" x="904.562" y="109.035" width="4.694" height="11.629" rx="1.833" ry="1.833"/><path fill="#718e22" d="M441.75 52.81h307.261v85.508H441.75z"/><path class="cls-22" transform="rotate(-12.388 297.482 103.355)" d="M291.305 30.38h12.353v145.949h-12.353z"/><path class="cls-22" transform="rotate(-12.388 320.429 120.106)" d="M313.868 83.139h13.123v73.935h-13.123z"/><path class="cls-22" transform="rotate(-12.388 308.633 117.126)" d="M300.471 108.965h16.323v16.323h-16.323z"/><path class="cls-22" d="M404.387 125.641l-73.005 22.699-1.9-8.649 74.402-16.342.503 2.292z"/><path transform="rotate(-12.388 370.311 91.345)" fill="#f6c686" d="M323.795 52.884h93.032v76.922h-93.032z"/><path class="cls-24" transform="rotate(-12.388 403.616 88.563)" d="M398.655 73.626h9.922v29.873h-9.922z"/><path class="cls-22" transform="rotate(-12.388 288.926 110.385)" d="M286.192 49.244h5.467v122.282h-5.467z"/><rect class="cls-2" x="136.576" y="139.335" width="70.841" height="45.396" rx="12" ry="12"/><path class="cls-13" d="M283.501 134.816c-.876-1.796-1.398-3.747-2.115-5.604-1.604-4.148-3.544-8.145-5.086-12.32a8.33 8.33 0 01-.46-1.89 10.169 10.169 0 00-1.423-.11h-8.683a5.545 5.545 0 01-4.891-2.697l-6.66-11.534a3.423 3.423 0 00-6.388 1.712 6.407 6.407 0 00-2.338 8.726l9.236 15.997.007.012a7.288 7.288 0 01.828 3.082v8.523a10.28 10.28 0 007.287 9.8 7.39 7.39 0 012.395-2.081c3.775-2.141 7.673-3.746 11.621-5.515 1.305-.584 4.913-3.672 7.238-4.983-.197-.368-.4-.732-.568-1.118z"/><path class="cls-24" transform="rotate(-12.388 391.996 58.783)" d="M382.074 54.942h19.844v7.682h-19.844z"/><path d="M259.005 52.73c-1.64-4.08-6.796-7.477-11.783-9.926l-.167-.082a42.4 42.4 0 00-18.578-4.207h-45.964a15.408 15.408 0 00-15.363 15.363v92.217a49.268 49.268 0 017.041 2.22V61.163A15.408 15.408 0 01189.554 45.8h31.871a42.593 42.593 0 0118.845 4.334c4.959 2.445 10.064 5.825 11.693 9.882 8.381 20.868 19.665 59.633 25.71 81.125a25.626 25.626 0 019.064-.047c-5.174-18.66-18.294-64.862-27.732-88.364z" fill="#414449"/><path class="cls-2" d="M278.886 139.897c-3.327.457-8.23-.329-11.315 1.046-2.532 1.129-3.688 4.693-5.067 6.943a23.559 23.559 0 01-16.184 11.182c-6.69 1.27-14.608-.966-19.377-5.68v15.98a15.408 15.408 0 0015.363 15.362h47.955a15.408 15.408 0 0015.363-15.363v-27.312a7.416 7.416 0 00-.59-2.873h-21.638c-1.095 1.002-2.588.45-4.51.715z"/><path class="cls-6" d="M166.29 158.752a21.124 21.124 0 1021.125 21.124 21.124 21.124 0 00-21.124-21.124zm0 32.766a11.749 11.749 0 1111.75-11.749 11.749 11.749 0 01-11.75 11.75zm121.81-42.315a25.899 25.899 0 1025.9 25.899 25.899 25.899 0 00-25.9-25.899zm-.066 37.421a11.749 11.749 0 1111.749-11.749 11.749 11.749 0 01-11.75 11.75z"/><circle class="cls-7" cx="288.034" cy="175.595" r="11.749"/><circle class="cls-7" cx="166.291" cy="180.489" r="11.749"/><path d="M290.261 137.974h-4.392a1975.427 1975.427 0 00-8.17-28.459h-9.212a1840.421 1840.421 0 018.293 28.46h-6.631s-4.675-.016-6.108 1.36c-1.483 1.423-2.11 5.315-2.612 6.827a15.424 15.424 0 01-14.59 10.563h-7.416a15.245 15.245 0 01-4.239-.599c-6.405-1.851-11.842-17.212-13-20.688-1.296-3.894-3.145-9.077-5.154-13.556-2.387-5.323-9.886-9.603-12.07-9.585l-7.998.062-51.69.437a15.408 15.408 0 00-15.363 15.363v43.102a15.374 15.374 0 007.062 12.896 33.154 33.154 0 015.185-16.372c9.031-14.252 26.629-19.293 39.305-11.26 9.767 6.19 13.734 18.332 10.923 30.1h44.64c.396 0 .785-.03 1.173-.06.389.03.778.06 1.174.06h18.277a32.745 32.745 0 0147.976-39.723v-8.928z" fill="#e5bc10"/><path class="cls-19" d="M204.96 112.297s-9.007.644-11.2-1.341c-5.48-4.964-3.323-28.021-3.323-28.021a5.313 5.313 0 00-5.843-5.273 5.472 5.472 0 00-4.756 5.522v31.63a6.563 6.563 0 006.544 6.544h30.38c-2.626-5.076-9.69-9.079-11.803-9.061z"/><path d="M241.149 124.053a12.383 12.383 0 00.285-5.125c-.827-3.658-4.67-5.468-6.733-6.44l-15.38-7.247a7.682 7.682 0 00-4.222-1.042 42.252 42.252 0 00-4.895.795l-2.464 2.186a2.696 2.696 0 00-1.158.801c-.795 1.057-.22 2.485.701 3.43 1.98 2.033 4.621 3.12 6.952 4.08l4.025 1.658a32.122 32.122 0 004.068 1.193c3.375.843 7.576 1.893 8.611 4.175a17.35 17.35 0 011.113 5.147c.051.451.102.901.161 1.349a102.134 102.134 0 01.493 14.325c-.037 3.02-.075 6.145.058 9.175.05 1.136.231 2.734 1.228 3.495a2.003 2.003 0 001.243.405 2.728 2.728 0 00.606-.07c1.728-.393 1.9-2.413 2.003-3.62.162-1.883.273-3.767.384-5.651.148-2.512.301-5.11.578-7.657a180.746 180.746 0 012.33-15.296l-.629-.123z" fill="#ff7900"/><path d="M232.37 155.21a5.396 5.396 0 00-.114 1.632.864.864 0 00.134.4.955.955 0 00.566.306 6.639 6.639 0 001.037.175 13.3 13.3 0 003.625-.346c2.454-.464 1.948.094 4.387-.444a6.657 6.657 0 001.393-.381 1.959 1.959 0 00.561-1.337c-.136-.31-.711-.423-1.049-.437a9.716 9.716 0 01-2.954-.216 5.413 5.413 0 01-.984-.36c-.57-.257-1.243-.288-1.181-.911.03-.309.123-.95.115-1.317s-3.238-.932-3.743-.85c-.28.044-1.23.044-1.44.27 0 0 .037 1.024.048 1.274a11.253 11.253 0 01-.4 2.541z" fill="#534741"/><path class="cls-11" d="M241.214 95.536a22.141 22.141 0 01-.68-2.743l-.254-1.405-1.369.405a30.869 30.869 0 01-9.66 1.23 15.813 15.813 0 01-3.881-.526 5.191 5.191 0 01-2.43-1.359c-1.611-1.642-2.87-5.076-3.788-7.584l-1.21-3.302-1.196 3.306a21.757 21.757 0 00-.942 5.652c-.023.333-1.46-.515-1.38-.239-.609.648 1.328 3.718 1.328 3.718a10.807 10.807 0 004.051 3.902 12.466 12.466 0 004.115 1.216 44.41 44.41 0 006.656.507 41.334 41.334 0 009.72-1.146l1.336-.323z"/><path class="cls-16" d="M207.875 81.24c2.728.399 5.324-1.767 5.769-4.812l-1.54-5.16c-.075-2.701 1.844-2.854 2.798-5.383l.457-1.21.558-3.83c.445-3.044-1.425-5.861-4.153-6.26s-5.324 1.768-5.769 4.813l-2.273 15.583c-.445 3.045 1.424 5.862 4.153 6.26z"/><path d="M194.02 79.317c.27-.431 1.884-2.646 2.343-3.254a18.245 18.245 0 014.815-3.692 7.077 7.077 0 012.929-.592 5.635 5.635 0 012.355 1.009c1.255 1.227 1.395 1.944 2.79 2.612.823.394 2.482-1.532 3.815-1.695a2.335 2.335 0 011.767.701 22.765 22.765 0 012.875 3.073 10.775 10.775 0 011.894 4.698 16.649 16.649 0 01.493 4.62c-.226 1.847-3.964 3.785-4.113 4.901-.203 1.514.779 5.922 0 12.477l-17.624 3.847c-1.824-4.588.141-18.422-.728-19.03-.21-.146-.302-.29-1.53.632-1.342 1.006-2.242 1.68-3.267 1.525-1.21-.184-1.788-1.922-1.311-4.85.014-.09.352-1.511.698-2.811a21.836 21.836 0 011.798-4.17z" fill="#014f80"/><path d="M217.045 54.539c.007.966 1.776.982.347 3.046-1.15 1.662-2.626-.604-5.244-.912a3.326 3.326 0 00-2.698.482c-1.312 1.256-.049 4.099-1.047 4.601-.662.334-1.544-.754-2.204-.322-.538.353-.307.878-.333 1.84-.032 1.138-1.784.459-1.78-3.65.002-3.025.028-4.667 1.225-5.825a5.591 5.591 0 013.435-1.25c1.825-.23.492-.358 2.965.315.88.24 5.327.669 5.334 1.675z" fill="#3f3b32"/><rect class="cls-31" x="246.878" y="151.807" width="11.536" height="1.172" rx=".458" ry=".458" transform="rotate(-30 252.646 152.393)"/><rect class="cls-31" x="250.009" y="153.653" width="2.561" height="1.517" rx=".211" ry=".211" transform="rotate(60 251.29 154.412)"/><path d="M247.971 148.494c-4.386-7.205-7.236-15.215-9.445-22.1l-.102-.32c-1.159-3.614-2.356-7.352-4.91-10.038a22.327 22.327 0 00-4.43-3.347c-4.265-2.687-13.069-6.93-18.44-7.414-.293-.027-4.116.316-4.438.32-.51.05-3.844.58-4.644.66a13.362 13.362 0 00-3.539.648l.336 1.444.06.388c.755 4.934 6.574 7.817 9.894 8.743a43.669 43.669 0 008.43 1.21c1.702.131 3.463.267 5.168.528 2.101.32 4.753.93 6.61 2.804a15.684 15.684 0 012.56 3.97l12.98 25.318c.335.652 1.249 2.206 2.517 2.57a1.8 1.8 0 001.457-.19 2.692 2.692 0 001.033-2.748 7.031 7.031 0 00-1.097-2.446z" fill="#ff9511"/><path d="M244.988 153.344a3.46 3.46 0 00.531 1.195.64.64 0 00.275.223 1.097 1.097 0 00.626-.033 8.296 8.296 0 00.998-.33 16.231 16.231 0 003.117-1.827c2.021-1.397 1.783-.785 3.762-2.228a7.703 7.703 0 001.102-.876 1.348 1.348 0 00-.016-1.183c-.242-.157-.802.014-1.11.152a12.128 12.128 0 01-2.733 1.14 6.575 6.575 0 01-1.022.177 2.764 2.764 0 01-1.728-.187 1.88 1.88 0 01-.57-.682c-.15-.253-.358-.84-.62-1.01 0 0-.266.104-.55.223a6.28 6.28 0 00-1.174.817 7.752 7.752 0 01-.867.78c-.232.153-1.465.529-1.373.783a7.843 7.843 0 00.425.83 10.701 10.701 0 01.927 2.036z" fill="#3a302c"/><path class="cls-31" d="M252.145 154.628a2.389 2.389 0 00-2.3 1.787 15.241 15.241 0 004.696-1.787z"/><path class="cls-13" transform="rotate(56.899 247.338 101.75)" d="M242.577 99.253h9.522v4.995h-9.522z"/><rect class="cls-20" x="233.168" y="96.486" width="24.005" height="3.88" rx="1.375" ry="1.375" transform="rotate(-33.101 245.171 98.427)"/><rect class="cls-11" x="238.708" y="89.724" width="7.853" height="6.598" rx="1.436" ry="1.436" transform="rotate(-27.344 242.634 93.023)"/><rect class="cls-20" x="243.189" y="90.727" width="2.472" height="7.008" rx=".656" ry=".656" transform="rotate(-30 244.425 94.23)"/><circle class="cls-20" cx="221.556" cy="119.832" r="1.73"/><rect class="cls-13" x="201.069" y="126.714" width="22.837" height="8.601" rx="1.813" ry="1.813"/><rect class="cls-34" x="217.019" y="128.801" width="4.537" height="1.867" rx=".729" ry=".729"/><path class="cls-16" d="M192.369 96.731a17.384 17.384 0 001.348 5.835 6.883 6.883 0 00.994 1.365c6.85 7.222 16.698 10.731 25.409 15.61a2.33 2.33 0 003.193-.972l.024-.045a2.355 2.355 0 00-1.13-3.24q-6.46-2.923-12.688-6.33c-3.655-1.999-7.448-4.337-9.233-8.101a18.378 18.378 0 01-1.337-4.752 71.647 71.647 0 01-.931-7.904A1.268 1.268 0 00196.87 87c-1.985-.184-4.877-.382-5.446 1.168-.342.931.36 3.266.472 4.272z"/><rect class="cls-20" x="219.875" y="120.208" width="1.139" height="11.16" rx=".445" ry=".445" transform="rotate(11.46 220.444 125.788)"/><circle class="cls-34" cx="206.513" cy="129.734" r="1.657"/><circle class="cls-34" cx="211.634" cy="129.734" r="1.657"/><rect x="134.442" y="94.026" width="36.701" height="27.992" rx="7.531" ry="7.531" fill="#b31f2f"/><rect x="139.776" y="90.065" width="11.096" height="12.816" rx="4.333" ry="4.333" fill="#d3203a"/></g></g></svg>