<svg xmlns="http://www.w3.org/2000/svg" viewBox="0 0 813 230"><g id="Слой_2" data-name="Слой 2"><path d="M726.87 104.67V67.33a2.33 2.33 0 00-2.33-2.33h-26.414a2.33 2.33 0 01-2.33-2.33V2.33a2.33 2.33 0 00-2.33-2.33h-38.007a2.33 2.33 0 00-2.33 2.33v76.007a2.33 2.33 0 01-2.33 2.33h-23.34a2.33 2.33 0 01-2.33-2.33v-45.34a2.33 2.33 0 00-2.33-2.33h-29.673a2.33 2.33 0 00-2.33 2.33v49.34a2.33 2.33 0 01-2.33 2.33h-.34a2.33 2.33 0 01-2.33-2.33v-21.34a2.33 2.33 0 00-2.33-2.33h-26.007a2.33 2.33 0 00-2.33 2.33v21.34a2.33 2.33 0 01-2.33 2.33h-16.007a2.33 2.33 0 01-2.33-2.33V18.33a2.33 2.33 0 00-2.33-2.33h-39.006a2.33 2.33 0 00-2.33 2.33v47.33a2.33 2.33 0 01-.733 1.697l-9.674 9.104a2.33 2.33 0 01-3.927-1.697V42.997a2.33 2.33 0 00-2.33-2.33h-9.34a2.33 2.33 0 01-2.33-2.33V2.33a2.33 2.33 0 00-2.33-2.33h-26.006a2.33 2.33 0 00-2.33 2.33v54.007a2.33 2.33 0 01-2.33 2.33h-32.674a2.33 2.33 0 01-2.33-2.33v-23.34a2.33 2.33 0 00-2.33-2.33h-27.34a2.33 2.33 0 01-2.33-2.33V18.33a2.33 2.33 0 00-2.33-2.33h-27.34a2.33 2.33 0 00-2.33 2.33v6.673a2.33 2.33 0 01-2.33 2.33h-.006a2.33 2.33 0 00-2.33 2.33v26.674a2.33 2.33 0 002.33 2.33h.006a2.33 2.33 0 012.33 2.33v11.34a2.33 2.33 0 01-2.33 2.33H303.46a2.33 2.33 0 01-2.33-2.33V46.338a2.33 2.33 0 00-3.322-2.108l-20.689 9.736a2.33 2.33 0 01-3.322-2.108V22.33a2.33 2.33 0 00-2.33-2.33H225.46a2.33 2.33 0 00-2.33 2.33v34.007a2.33 2.33 0 01-2.33 2.33h-22.673a2.33 2.33 0 01-2.33-2.33v-8.278a2.33 2.33 0 00-3.927-1.696l-9.146 8.608a2.33 2.33 0 01-3.927-1.697V26.33a2.33 2.33 0 00-2.33-2.33h-32.674a2.33 2.33 0 00-2.33 2.33v52.673a2.33 2.33 0 01-2.33 2.33H88.46a2.33 2.33 0 00-2.33 2.33v21.007A2.33 2.33 0 0183.8 107H2.33A2.33 2.33 0 000 109.33v118.34A2.33 2.33 0 002.33 230h808.34a2.33 2.33 0 002.33-2.33V109.33a2.33 2.33 0 00-2.33-2.33H729.2a2.33 2.33 0 01-2.33-2.33z" fill="#e3f9d4" id="Слой_1-2" data-name="Слой 1"/></g></svg>