<svg xmlns="http://www.w3.org/2000/svg" viewBox="0 0 44.5 44.5"><g id="Слой_2" data-name="Слой 2"><path d="M36.64 0H7.85A7.86 7.86 0 000 7.85v28.79a7.87 7.87 0 007.85 7.86h28.79a7.87 7.87 0 007.86-7.86V7.85A7.87 7.87 0 0036.64 0zm4.86 36.64a4.87 4.87 0 01-4.86 4.86H7.85A4.86 4.86 0 013 36.64V7.85A4.85 4.85 0 017.85 3h28.79a4.86 4.86 0 014.86 4.85zM22.22 7.54a11 11 0 00-10.91 10.93 1.5 1.5 0 001.5 1.5h18.87a1.5 1.5 0 001.5-1.5A11 11 0 0022.22 7.54zm1.38 9.43a.76.76 0 000-.11l-1.9-3.76a1.5 1.5 0 10-2.746 1.207q.03.068.066.133l1.27 2.54h-5.83a7.93 7.93 0 0115.58 0z" id="Слой_1-2" data-name="Слой 1" fill="#5aaa1f"/></g></svg>