<svg xmlns="http://www.w3.org/2000/svg" viewBox="0 0 14.5 42.602"><defs><style>.cls-3{fill:#4b8712}</style></defs><g id="Слой_2" data-name="Слой 2"><g id="Слой_1-2" data-name="Слой 1"><circle cx="7.251" cy="4.577" r="4.344" fill="#ffc490"/><path d="M11.712 10.103H2.791A2.79 2.79 0 000 12.893V22.97a2.789 2.789 0 002.79 2.79h8.835v.002h.087A2.79 2.79 0 0014.5 22.97V12.893a2.79 2.79 0 00-2.788-2.79z" fill="#5aaa1f"/><path class="cls-3" d="M3.482 25.761c-.004.051-.017.1-.017.152v14.539a2.15 2.15 0 002.15 2.15h1.636v-16.84z"/><path d="M11.035 40.452V25.914c0-.054-.011-.103-.015-.15l-3.769-.002v16.84h1.633a2.149 2.149 0 002.151-2.15zM7.249 0a3.835 3.835 0 00-3.85 2.571h7.7A3.835 3.835 0 007.25 0z" fill="#5e991f"/><rect class="cls-3" x="3.051" y="2.571" width="9.517" height=".953" rx=".347" ry=".347"/></g></g></svg>