<svg xmlns="http://www.w3.org/2000/svg" viewBox="0 0 88 88"><defs xmlns="http://www.w3.org/2000/svg"><style>g{display:none}g:target,g:target *{display:inline}</style></defs><g id="green" data-name="Слой 2" fill="#525252"><g id="Слой_1-2" data-name="Слой 1"><path fill="#5aaa1f" d="M44 0a44 44 0 1044 44A44 44 0 0044 0zm0 80a36 36 0 1136-36 36 36 0 01-36 36z"/><path fill="#FFF" d="M45.16 19a5.592 5.592 0 00-4.147 1.764 5.862 5.862 0 00-1.73 4.25 5.8 5.8 0 001.73 4.234A5.618 5.618 0 0045.161 31a5.558 5.558 0 004.126-1.752A5.817 5.817 0 0051 25.013a5.88 5.88 0 00-1.714-4.25A5.547 5.547 0 0045.161 19zm4.41 43.202a5.645 5.645 0 01-1.77.333 3.291 3.291 0 01-2.34-.665 3.52 3.52 0 01-.673-2.502 15.83 15.83 0 01.21-2.153q.204-1.427.468-2.536l2.14-9.212a16.997 16.997 0 00.43-2.789q.118-1.517.116-2.12a6.711 6.711 0 00-1.68-4.735A6.177 6.177 0 0041.691 34a10.164 10.164 0 00-3.652.745q-1.93.744-4.039 1.789s.344 2.459.928 2.25a5.042 5.042 0 011.709-.319 2.963 2.963 0 012.297.7 3.848 3.848 0 01.6 2.47 13.212 13.212 0 01-.195 2.167q-.194 1.19-.483 2.52l-2.149 9.245q-.286 1.458-.417 2.614a20.17 20.17 0 00-.13 2.264 6.616 6.616 0 001.732 4.703A6.329 6.329 0 0042.746 67a9.099 9.099 0 003.568-.648q1.533-.649 4.113-1.886s-.2-2.484-.857-2.264z"/></g></g><g id="grey" data-name="Слой 2" fill="#525252"><g id="Слой_1-2" data-name="Слой 1"><path d="M44 0a44 44 0 1044 44A44 44 0 0044 0zm0 80a36 36 0 1136-36 36 36 0 01-36 36z"/><path d="M45.16 19a5.592 5.592 0 00-4.147 1.764 5.862 5.862 0 00-1.73 4.25 5.8 5.8 0 001.73 4.234A5.618 5.618 0 0045.161 31a5.558 5.558 0 004.126-1.752A5.817 5.817 0 0051 25.013a5.88 5.88 0 00-1.714-4.25A5.547 5.547 0 0045.161 19zm4.41 43.202a5.645 5.645 0 01-1.77.333 3.291 3.291 0 01-2.34-.665 3.52 3.52 0 01-.673-2.502 15.83 15.83 0 01.21-2.153q.204-1.427.468-2.536l2.14-9.212a16.997 16.997 0 00.43-2.789q.118-1.517.116-2.12a6.711 6.711 0 00-1.68-4.735A6.177 6.177 0 0041.691 34a10.164 10.164 0 00-3.652.745q-1.93.744-4.039 1.789s.344 2.459.928 2.25a5.042 5.042 0 011.709-.319 2.963 2.963 0 012.297.7 3.848 3.848 0 01.6 2.47 13.212 13.212 0 01-.195 2.167q-.194 1.19-.483 2.52l-2.149 9.245q-.286 1.458-.417 2.614a20.17 20.17 0 00-.13 2.264 6.616 6.616 0 001.732 4.703A6.329 6.329 0 0042.746 67a9.099 9.099 0 003.568-.648q1.533-.649 4.113-1.886s-.2-2.484-.857-2.264z"/></g></g><g id="red" data-name="Слой 2"><g id="Слой_1-2" data-name="Слой 1" fill="#9c3f3f"><path d="M44 0a44 44 0 1044 44A44 44 0 0044 0zm0 80a36 36 0 1136-36 36 36 0 01-36 36z"/><path d="M45.16 19a5.592 5.592 0 00-4.147 1.764 5.862 5.862 0 00-1.73 4.25 5.8 5.8 0 001.73 4.234A5.618 5.618 0 0045.161 31a5.558 5.558 0 004.126-1.752A5.817 5.817 0 0051 25.013a5.88 5.88 0 00-1.714-4.25A5.547 5.547 0 0045.161 19zm4.41 43.202a5.645 5.645 0 01-1.77.333 3.291 3.291 0 01-2.34-.665 3.52 3.52 0 01-.673-2.502 15.83 15.83 0 01.21-2.153q.204-1.427.468-2.536l2.14-9.212a16.997 16.997 0 00.43-2.789q.118-1.517.116-2.12a6.711 6.711 0 00-1.68-4.735A6.177 6.177 0 0041.691 34a10.164 10.164 0 00-3.652.745q-1.93.744-4.039 1.789s.344 2.459.928 2.25a5.042 5.042 0 011.709-.319 2.963 2.963 0 012.297.7 3.848 3.848 0 01.6 2.47 13.212 13.212 0 01-.195 2.167q-.194 1.19-.483 2.52l-2.149 9.245q-.286 1.458-.417 2.614a20.17 20.17 0 00-.13 2.264 6.616 6.616 0 001.732 4.703A6.329 6.329 0 0042.746 67a9.099 9.099 0 003.568-.648q1.533-.649 4.113-1.886s-.2-2.484-.857-2.264z"/></g></g></svg>