<svg xmlns="http://www.w3.org/2000/svg" viewBox="0 0 31.192 43"><g id="Слой_2" data-name="Слой 2"><path d="M31.192 1.955A63.195 63.195 0 000 1.955v33.247h4.585L0 43h4.523l4.585-7.798h12.986L26.68 43h4.513l-4.585-7.798h4.585zM6.82 31.293a2.922 2.922 0 112.921-2.922 2.918 2.918 0 01-2.921 2.922zm6.83-9.743H3.9V5.074a55.802 55.802 0 019.753-1.092zm10.72 9.743a2.922 2.922 0 112.922-2.922 2.918 2.918 0 01-2.922 2.922zm2.922-9.743H17.54V3.972a56.251 56.251 0 019.753 1.091z" id="Слой_1-2" data-name="Слой 1"/></g></svg>