<svg xmlns="http://www.w3.org/2000/svg" viewBox="0 0 33.064 32"><g id="Слой_2" data-name="Слой 2"><path d="M27.633 0H5.358A5.396 5.396 0 000 5.394v14.533a5.364 5.364 0 005.358 5.357h10.459L27.156 32l-.55-6.716h1.064a5.396 5.396 0 005.394-5.357V5.395A5.459 5.459 0 0027.633 0zM7.743 13.174a1.651 1.651 0 111.652 1.652 1.668 1.668 0 01-1.652-1.652zm7.45 0a1.651 1.651 0 111.651 1.652 1.693 1.693 0 01-1.651-1.652zm9.064 1.615a1.651 1.651 0 111.651-1.651 1.645 1.645 0 01-1.651 1.651z" fill="#85d34c" id="Слой_1-2" data-name="Слой 1"/></g></svg>