<svg xmlns="http://www.w3.org/2000/svg" viewBox="0 0 30 30"><g id="Слой_2" data-name="Слой 2"><g fill="#5aaa1f" id="Слой_1-2" data-name="Слой 1"><path d="M29 0H1a1 1 0 00-1 1v28a1 1 0 001 1h28a1 1 0 001-1V1a1 1 0 00-1-1zm-1 28H2V2h26z"/><path d="M18.28 12.95a1 1 0 00.72-.3l5.12-5.27v3.41a1 1 0 102 0V4.91a1 1 0 00-.12-.36 1 1 0 00-.22-.32l-.1-.06a.71.71 0 00-.48-.19h-5.84a1 1 0 000 2h3.39l-5.19 5.35a1 1 0 00.72 1.62zM4 25.45a1 1 0 00.14.22.93.93 0 00.07.1 1 1 0 00.71.3h5.87a1 1 0 000-2H7.4L12.67 19a1 1 0 00-1.39-1.44l-5.35 5.15v-3.39a1 1 0 00-2 0v5.75a.94.94 0 000 .13 1 1 0 00.07.25z"/></g></g></svg>