<svg xmlns="http://www.w3.org/2000/svg" viewBox="0 0 48.438 48.438"><g id="Слой_2" data-name="Слой 2"><g id="Слой_1-2" data-name="Слой 1"><path d="M12 48.438h9.219V31.843a9.01 9.01 0 00-9-9H0v13.593a12.035 12.035 0 0012 12z" fill="#a4d6e1"/><path d="M36.438 0H12A12.035 12.035 0 000 12v4.844h12.219a15.017 15.017 0 0115 15v16.593h9.218a12.035 12.035 0 0012-12V12a12.035 12.035 0 00-12-12z" fill="#6ec26e"/><path d="M12.219 16.844H0v6h12.219a9.01 9.01 0 019 9v16.593h6V31.845a15.017 15.017 0 00-15-15z" fill="#d9e021"/><circle cx="24.161" cy="21.25" r="5.688" fill="#fff"/><path d="M24.219 11.756a9.503 9.503 0 00-9.506 9.505c0 4.123 5.856 11.79 8.377 14.888a1.465 1.465 0 002.258 0c2.52-3.098 8.376-10.765 8.376-14.888a9.503 9.503 0 00-9.505-9.505zm0 13.628a4.122 4.122 0 114.122-4.123 4.113 4.113 0 01-4.122 4.123z" fill="#f15e1b"/></g></g></svg>