<svg xmlns="http://www.w3.org/2000/svg" viewBox="0 0 37.691 33"><g id="Слой_2" data-name="Слой 2"><path d="M1.221 4.67l1.384-.406 3.338-1.018v8.222l3.826-.733V2.106l3.419-1.017L16.648.07c.04 0 .081 0 .081-.04h.081a1.542 1.542 0 01.61 0h.082c.041 0 .082 0 .082.04l6.43 1.913a10.251 10.251 0 00-1.953 2.93l-3.297-.976v25.114l12.089-3.623v-7.326h.04a9.918 9.918 0 003.338-.61v9.157a1.735 1.735 0 01-1.22 1.628l-15.387 4.64a2.043 2.043 0 01-.488.082 2.043 2.043 0 01-.488-.081L1.22 28.279A1.662 1.662 0 010 26.65V6.3a1.662 1.662 0 011.221-1.63zm29.673-2.89a6.797 6.797 0 11-6.798 6.798 6.81 6.81 0 016.798-6.797zm-3.42 7.002l1.262 1.261 1.303 1.303 1.302-1.303 2.972-2.97L33.01 5.77l-2.97 2.97-1.262-1.262z" fill="#85d34c" id="Слой_1-2" data-name="Слой 1"/></g></svg>