<svg xmlns="http://www.w3.org/2000/svg" viewBox="0 0 28.65 22"><g id="Слой_2" data-name="Слой 2"><path d="M28.149 1.84A9.228 9.228 0 0022.596 0c-3.026 0-5.953 1.388-8.785 2.73-2.71 1.286-5.27 2.5-7.756 2.5a6.91 6.91 0 01-4.153-1.39A1.2 1.2 0 000 4.817v14.367a1.205 1.205 0 00.498.976A9.237 9.237 0 006.052 22h.002c3.026-.001 5.952-1.39 8.785-2.73 2.71-1.286 5.27-2.5 7.756-2.5a6.9 6.9 0 014.15 1.389 1.202 1.202 0 001.905-.976V2.816a1.2 1.2 0 00-.501-.976zM14.325 15a4 4 0 114-4 4 4 0 01-4 4z" fill="#5aaa1f" id="Слой_1-2" data-name="Слой 1"/></g></svg>