<svg xmlns="http://www.w3.org/2000/svg" viewBox="0 0 13.53 13"><defs><style>.cls-1{fill:#299e37}</style></defs><g id="Слой_2" data-name="Слой 2"><g id="Слой_1-2" data-name="Слой 1"><path class="cls-1" d="M6.765 13A6.765 6.765 0 010 6.236c0-.153.006-.303.015-.452L4.112 8.14l8.676-4.99A6.768 6.768 0 016.765 13z"/><path class="cls-1" d="M.299 4.245l3.813 2.193 7.86-4.521a7.162 7.162 0 01.443.596L4.112 7.29.115 4.99A6.444 6.444 0 01.3 4.245z"/><path class="cls-1" d="M.89 2.882l3.222 1.854L10.863.854a6.864 6.864 0 01.594.508L4.112 5.587.558 3.544a6.533 6.533 0 01.331-.662z"/><path class="cls-1" d="M1.761 1.683l2.35 1.352L9.39 0a6.702 6.702 0 01.791.396l-6.068 3.49L1.29 2.261a6.744 6.744 0 01.471-.579z"/></g></g></svg>