<svg xmlns="http://www.w3.org/2000/svg" viewBox="0 0 28.36 8"><defs><linearGradient id="Безымянный_градиент_2" x1="19.997" y1="175.446" x2="28.36" y2="175.446" gradientTransform="matrix(1 0 0 -1 0 177.083)" gradientUnits="userSpaceOnUse"><stop offset="0" stop-color="#00a3e1"/><stop offset=".304" stop-color="#009add"/><stop offset=".799" stop-color="#0082d4"/><stop offset="1" stop-color="#0076cf"/></linearGradient></defs><g id="Слой_2" data-name="Слой 2"><g id="Слой_1-2" data-name="Слой 1"><path d="M15.79.845l-1.792 3.882h-.182V0h-2.545v7.999h2.16a1.455 1.455 0 001.32-.845l1.792-3.882h.182V8h2.545V0h-2.16a1.455 1.455 0 00-1.32.845zm-9.549.207l-1.06 3.676h-.182L3.94 1.052A1.455 1.455 0 002.542.002H0V8h2.545V3.273h.182L4.18 8H6l1.454-4.727h.182V8h2.545V.001H7.638a1.454 1.454 0 00-1.397 1.051zM20.36 3.636v4.363h2.54V5.454h2.733A2.725 2.725 0 0028.2 3.636z" fill="#319b42"/><path d="M25.633 0h-5.636a3.999 3.999 0 003.931 3.272h4.377A2.728 2.728 0 0025.633 0z" fill="url(#Безымянный_градиент_2)"/></g></g></svg>