<svg xmlns="http://www.w3.org/2000/svg" viewBox="0 0 10.857 16.915"><g id="Слой_2" data-name="Слой 2"><path d="M5.428 0C6.58 0 6.942.825 7.244 1.65l3.21 8.787a.174.174 0 01-.098.222c-.106.04-1.66.645-1.746.677a.17.17 0 01-.215-.1c-.032-.085-.676-1.872-.749-2.072H3.214l-.753 2.071a.167.167 0 01-.215.101C2.156 11.3.594 10.694.5 10.66a.174.174 0 01-.097-.222C.512 10.13 3.459 2.07 3.609 1.65 3.901.837 4.276 0 5.428 0zM.166 14.658A.17.17 0 000 14.83v1.913a.17.17 0 00.166.172H10.69a.17.17 0 00.167-.172V14.83a.17.17 0 00-.167-.172zM5.419 2.675l-1.499 4.5h3.021l-1.503-4.5z" fill="#ee3524" id="Слой_1-2" data-name="Слой 1"/></g></svg>