<svg xmlns="http://www.w3.org/2000/svg" viewBox="0 0 338.631 16.918"><defs><linearGradient id="Безымянный_градиент_2" x1="183.084" y1="263.999" x2="200.768" y2="263.999" gradientTransform="matrix(1 0 0 -1 0 267.459)" gradientUnits="userSpaceOnUse"><stop offset="0" stop-color="#00a3e1"/><stop offset=".304" stop-color="#009add"/><stop offset=".799" stop-color="#0082d4"/><stop offset="1" stop-color="#0076cf"/></linearGradient><style>.cls-3{fill:#eb001b}.cls-11{fill:#299e37}</style></defs><g id="Слой_2" data-name="Слой 2"><g id="Слой_1-2" data-name="Слой 1"><path d="M304.587 0a8.664 8.664 0 013.76.856c.178.081.36.178.538.275l-.785.695-1.176-1.212-2.026 1.777-1.193-1.276-3.725 3.312 2.385 2.601-.93.808 2.352 2.601-.93.808 3.365 3.7 1.992-1.81 1.733 1.94a9.651 9.651 0 01-1.127.743 8.615 8.615 0 01-4.216 1.097 8.522 8.522 0 01-8.562-8.465A8.505 8.505 0 01304.587 0zm-1.568 7.933l2.042-1.81 1.831 2.02-2.043 1.81zm1.454 3.49l2.026-1.826 1.847 2.02-2.043 1.81zm-2.908-6.931l2.042-1.81 1.83 2.02-2.042 1.81zm3.741-.97l1.52-1.357 1.373 1.503-1.52 1.373zm2.713 6.22l1.52-1.357 1.372 1.519-1.52 1.358zm1.34 3.054l1.52-1.357 1.371 1.503-1.519 1.372zm.621-6.98l1.013-.904.914 1.002-1.012.904zm-1.307-2.989l1.013-.92.915 1.017-1.014.905zm2.597 5.979l1.013-.905.932 1.002-1.029.904zm-4.558-2.246l1.52-1.357 1.372 1.502-1.519 1.357z" fill="#036cb5"/><path d="M78.334 1.809H70.94v13.298h7.394z" fill="#ff5f00"/><path class="cls-3" d="M71.41 8.46a8.445 8.445 0 013.227-6.65 8.457 8.457 0 100 13.298 8.446 8.446 0 01-3.228-6.648z"/><path d="M88.31 8.459a8.45 8.45 0 01-13.673 6.648 8.46 8.46 0 000-13.298A8.451 8.451 0 0188.31 8.457zm-.807 5.238v-.272h.11v-.057h-.28v.057h.12v.272zm.542 0v-.329h-.084l-.099.235-.099-.235h-.075v.33h.061v-.247l.092.213h.063l.092-.213v.249z" fill="#f79e1b"/><path d="M118.216 1.81h-7.399v13.298h7.4z" fill="#7673c0"/><path class="cls-3" d="M111.29 8.46a8.442 8.442 0 013.23-6.647 8.456 8.456 0 100 13.297 8.442 8.442 0 01-3.23-6.65z"/><path d="M128.2 8.458a8.456 8.456 0 01-13.683 6.647 8.456 8.456 0 000-13.297 8.456 8.456 0 0113.682 6.65z" fill="#00a1df"/><path d="M218.744 0c1.152 0 1.514.825 1.816 1.65l3.21 8.787a.174.174 0 01-.098.222c-.106.04-1.66.645-1.746.677a.17.17 0 01-.215-.1c-.032-.085-.676-1.872-.749-2.072h-4.432l-.753 2.071a.167.167 0 01-.215.101c-.09-.036-1.652-.642-1.746-.677a.174.174 0 01-.097-.222c.11-.307 3.056-8.367 3.206-8.787.292-.813.667-1.65 1.82-1.65zm-5.262 14.658a.17.17 0 00-.166.172v1.913a.17.17 0 00.166.172h10.524a.17.17 0 00.167-.172V14.83a.17.17 0 00-.167-.172zm5.253-11.983l-1.499 4.5h3.021l-1.503-4.5z" fill="#ee3524"/><path d="M174.186 1.787l-3.789 8.208h-.384V0h-5.382v16.915h4.568a3.076 3.076 0 002.792-1.787l3.788-8.208h.385v9.995h5.382V0h-4.568a3.076 3.076 0 00-2.792 1.787zm-20.192.438l-2.242 7.773h-.384l-2.242-7.773a3.076 3.076 0 00-2.955-2.223h-5.375v16.916h5.382V6.921h.384l3.076 9.995h3.844l3.075-9.995h.385v9.995h5.382V.003h-5.375a3.075 3.075 0 00-2.955 2.223zm29.859 5.464v9.226h5.371v-5.382h5.777a5.762 5.762 0 005.431-3.844z" fill="#319b42"/><path d="M195.001 0h-11.917a8.456 8.456 0 008.313 6.92h9.255a5.769 5.769 0 00-5.65-6.92z" fill="url(#Безымянный_градиент_2)"/><path d="M280.117 11.337c-.159-.059-.173.13-.133.252a1.078 1.078 0 00.297.55c.084.05.184-.067.121-.354-.028-.124-.122-.385-.285-.448zm-1.259.532l-.007-.004-.012-.003-.015-.006-.009-.001-.024-.008a.392.392 0 00-.284.052.466.466 0 00-.062.648.587.587 0 00.272.217l.008.002.01.003.015.004.01.003a.148.148 0 00.022.006.373.373 0 00.285-.051.463.463 0 00.063-.646.557.557 0 00-.272-.216zm4.47 4.54a5.363 5.363 0 00-2.158-2.147 4.794 4.794 0 00-.953-.41 15.066 15.066 0 00-2.146-.41 4.129 4.129 0 01-1.677-.736 2.785 2.785 0 01-.7-.733c-.037-.057-.217-.275-.198-.35a2.258 2.258 0 00.122 1.202 6.485 6.485 0 01-5.182-2.892c-1.68-2.813-1.089-6.223 1.153-7.729 2.241-1.506 5.658-.444 7.487 2.275a6.345 6.345 0 01.95 5.307l-.012.036a2.02 2.02 0 00-1.86-.346 2.407 2.407 0 011.745.675 2.749 2.749 0 01.32.335c.022.03.045.06.067.093a2.659 2.659 0 01.482 1.122 7.295 7.295 0 00.542-8.49 7.47 7.47 0 00-10.378-1.92 7.466 7.466 0 00-2.483 10.256c1.792 2.767 5.994 3.611 8.403 2.849a6.227 6.227 0 016.2 2.005 1.95 1.95 0 01.29.459.076.076 0 00.11.044c.021-.011.081-.08-.124-.494z" fill="#ff9e16"/><path class="cls-11" d="M245.5 16.915a8.803 8.803 0 01-8.803-8.801c0-.199.008-.394.02-.587l5.33 3.065 11.29-6.493a8.807 8.807 0 01-7.838 12.816z"/><path class="cls-11" d="M237.086 5.524l4.961 2.853 10.227-5.883a9.32 9.32 0 01.577.776l-10.804 6.214-5.2-2.99a8.385 8.385 0 01.24-.97z"/><path class="cls-11" d="M237.854 3.75l4.193 2.412 8.785-5.051a8.932 8.932 0 01.772.661l-9.557 5.497-4.624-2.658a8.5 8.5 0 01.431-.861z"/><path class="cls-11" d="M238.99 2.19l3.057 1.76L248.914 0a8.72 8.72 0 011.03.515l-7.897 4.54-3.672-2.111a8.775 8.775 0 01.614-.754z"/><path d="M325.766 8.39c0-.95.08-1.552 2.047-3.02 1.628-1.216 6.848-5.37 6.848-5.37v6.935h3.97v9.98h-11.625a1.244 1.244 0 01-1.24-1.24z" fill="#ffcf01"/><path d="M334.661 6.935v4.018l-7.294 4.969 9.222-3V6.934z" fill="#d3ab07"/><path d="M331.328 6.727c.426-.508 1.05-.688 1.391-.4s.274.931-.153 1.44c-.426.508-1.049.687-1.39.4s-.275-.932.152-1.44z"/><path d="M24.516.744l-3.292 15.473h-4.017L20.521.744zM41.35 10.73l2.107-5.816 1.229 5.816zm4.477 5.487h3.71L46.287.744h-3.402a1.816 1.816 0 00-1.712 1.141L35.16 16.217h4.215l.833-2.326h5.136zM35.38 11.17c.022-4.082-5.64-4.323-5.597-6.145 0-.549.527-1.141 1.69-1.295a7.62 7.62 0 013.95.702l.703-3.292a10.822 10.822 0 00-3.753-.68c-3.95 0-6.738 2.107-6.76 5.114-.022 2.216 1.997 3.467 3.512 4.214 1.558.746 2.063 1.25 2.063 1.91 0 1.053-1.251 1.513-2.392 1.513a8.12 8.12 0 01-4.105-.965l-.724 3.38a11.859 11.859 0 004.434.834c4.214 0 6.957-2.085 6.979-5.29zM18.81.744l-6.497 15.473H8.099L4.894 3.861A1.727 1.727 0 003.951 2.5 17.71 17.71 0 000 1.183L.088.744h6.826a1.866 1.866 0 011.843 1.58l1.69 8.955L14.595.744z" fill="#2a2a6c"/></g></g></svg>