<svg xmlns="http://www.w3.org/2000/svg" viewBox="0 0 39.861 41"><defs><style>.cls-1{fill:#5aaa1f}</style></defs><g id="Слой_2" data-name="Слой 2"><g id="Слой_1-2" data-name="Слой 1"><path class="cls-1" d="M14.806 27.333h1.138a3.417 3.417 0 100-6.833h-3.416v9.111h2.278zm0-4.555h1.138a1.139 1.139 0 010 2.278h-1.138zm15.944 4.555h3.417v-2.277H30.75v-2.278h4.556V20.5h-6.834v9.111h2.278v-2.278zm-3.417-1.139v-2.277a3.42 3.42 0 00-3.416-3.417H20.5v9.111h3.417a3.42 3.42 0 003.416-3.417zm-4.555-3.416h1.139a1.14 1.14 0 011.139 1.139v2.277a1.14 1.14 0 01-1.14 1.14h-1.138z"/><path class="cls-1" d="M31.889 11.389L20.5 0H4.556A4.555 4.555 0 000 4.556v31.888A4.555 4.555 0 004.556 41h22.777a4.555 4.555 0 004.556-4.556v-2.277h7.972V15.944H31.89zM19.36 3.693l8.835 8.835H19.36zm18.222 14.53v13.666H10.25V18.222z"/></g></g></svg>