<svg xmlns="http://www.w3.org/2000/svg" viewBox="0 0 32 32"><defs><style>.cls-1{fill:#fff}</style></defs><g id="Слой_2" data-name="Слой 2"><g id="Слой_1-2" data-name="Слой 1"><path class="cls-1" d="M16 0a16 16 0 1016 16A16.047 16.047 0 0016 0zm0 29a13 13 0 1113-13 12.974 12.974 0 01-13 13z"/><circle class="cls-1" cx="16" cy="24" r="2"/><path class="cls-1" d="M16 6.5a5.549 5.549 0 00-5.5 5.5h3a2.5 2.5 0 015 0c0 1.1-.5 1.6-1.5 2.5a6.36 6.36 0 00-2.5 5h3c0-1.3.5-1.8 1.6-2.8a5.988 5.988 0 002.4-4.7A5.549 5.549 0 0016 6.5z"/></g></g></svg>