<svg xmlns="http://www.w3.org/2000/svg" viewBox="0 0 33.784 22.127"><defs><style>.cls-1{fill:#d2deca}.cls-2{fill:#5aaa1f}</style></defs><g id="Слой_2" data-name="Слой 2"><g id="Слой_1-2" data-name="Слой 1"><path class="cls-1" d="M4.625 4.544h10.323v13.237H4.625z"/><path class="cls-2" d="M10 22.127a10 10 0 10-10-10 10 10 0 0010 10zm.638-6.636H8.674v1.607H7v-1.607H6v-1.38h1v-.938H6V11.75h1V7.127h3.384a4.545 4.545 0 011.778.299 3.017 3.017 0 011.102.761 2.539 2.539 0 01.555 1.003 3.804 3.804 0 01.15 1.01 3.428 3.428 0 01-.164 1.002 2.483 2.483 0 01-.576.975 3.177 3.177 0 01-1.102.732 4.501 4.501 0 01-1.743.292h-1.71v.91h1.964zm-1.964-3.74h1.539a3.37 3.37 0 00.633-.065 1.96 1.96 0 00.625-.235 1.349 1.349 0 00.477-.476 1.508 1.508 0 00.185-.79 1.748 1.748 0 00-.164-.81 1.287 1.287 0 00-.434-.491 1.654 1.654 0 00-.604-.242 3.66 3.66 0 00-.69-.064H8.674z"/><path class="cls-1" d="M23.79 1.571h6.71v8.604h-6.71z"/><path class="cls-2" d="M27.284 13a6.5 6.5 0 10-6.5-6.5 6.5 6.5 0 006.5 6.5zm.414-4.314h-1.276v1.045h-1.088V8.686h-.65V7.79h.65v-.61h-.65v-.924h.65V3.25h2.2a2.954 2.954 0 011.155.194 1.96 1.96 0 01.717.495 1.65 1.65 0 01.36.652 2.472 2.472 0 01.098.656 2.228 2.228 0 01-.107.652 1.614 1.614 0 01-.374.633 2.065 2.065 0 01-.717.476 2.926 2.926 0 01-1.132.19h-1.112v.591h1.276zm-1.276-2.431h1a2.191 2.191 0 00.412-.042 1.273 1.273 0 00.406-.152.877.877 0 00.31-.31.98.98 0 00.12-.513 1.136 1.136 0 00-.106-.527.836.836 0 00-.282-.32 1.075 1.075 0 00-.393-.156 2.38 2.38 0 00-.448-.042h-1.019z"/></g></g></svg>