<svg xmlns="http://www.w3.org/2000/svg" viewBox="0 0 28.726 27.35"><g id="Слой_2" data-name="Слой 2"><path d="M28.371 9.998l-3.352-.476q-2.648-.377-5.296-.75l-1.009-.143-1.262-2.697-2.162-4.621C15.125.954 14.956.6 14.791.243a.499.499 0 00-.856 0q-.68 1.448-1.355 2.896L10.418 7.76l-.407.869-3.147.447q-2.648.377-5.296.75c-.403.057-.807.116-1.213.172-.384.053-.456.592-.218.83l2.353 2.344q1.865 1.854 3.726 3.709l.667.662q-.338 1.453-.674 2.908l-1.18 5.097c-.089.39-.182.78-.27 1.174a.501.501 0 00.726.559l3.101-1.488q2.45-1.175 4.903-2.354l.878-.422 2.85 1.368 4.903 2.353 1.083.521a.515.515 0 00.418.074.482.482 0 00.13-.056l.005-.003.003-.002a.47.47 0 00.166-.17.518.518 0 00.027-.448q-.364-1.563-.725-3.129l-1.18-5.097-.204-.886L24 15.393q1.864-1.854 3.725-3.709c.288-.284.576-.572.863-.856a.5.5 0 00-.218-.83z" fill="#ddd5cc" id="Слой_1-2" data-name="Слой 1"/></g></svg>