<svg xmlns="http://www.w3.org/2000/svg" viewBox="0 0 17.96 17"><g id="Слой_2" data-name="Слой 2"><path d="M17.82 6.925a.918.918 0 00-.418-.62l-2.22-1.386-.09-2.615a.919.919 0 00-.326-.67 8.943 8.943 0 00-2.728-1.58.92.92 0 00-.744.054L8.98 1.338 6.666.109a.92.92 0 00-.744-.053 8.952 8.952 0 00-2.728 1.579.92.92 0 00-.325.67l-.09 2.615L.557 6.306a.92.92 0 00-.418.619 8.938 8.938 0 000 3.15.92.92 0 00.418.62l2.22 1.386.09 2.615a.918.918 0 00.327.67 8.95 8.95 0 002.727 1.58.919.919 0 00.744-.054l2.314-1.23 2.314 1.23a.918.918 0 00.744.053 8.938 8.938 0 002.728-1.58.918.918 0 00.325-.669l.09-2.615 2.22-1.387a.918.918 0 00.419-.62 8.918 8.918 0 000-3.15zm-8.876 5.318a3.554 3.554 0 113.554-3.555 3.554 3.554 0 01-3.554 3.555z" fill="#464646" id="Слой_1-2" data-name="Слой 1"/></g></svg>