<svg xmlns="http://www.w3.org/2000/svg" viewBox="0 0 21.792 21.792"><defs xmlns="http://www.w3.org/2000/svg"><style>g{display:none}g:target,g:target *{display:inline}</style></defs><g id="light-green" data-name="Слой 2" fill="#2c540f"><g id="Слой_1-2" data-name="Слой 1"><path class="cls-1" d="M20.792 9.896h-.955a9.012 9.012 0 00-7.941-7.941V1a1 1 0 00-2 0v.955a9.012 9.012 0 00-7.941 7.94H1a1 1 0 100 2h.955a9.012 9.012 0 007.94 7.942v.955a1 1 0 002 0v-.955a9.012 9.012 0 007.942-7.941h.955a1 1 0 100-2zm-9.896 8a7 7 0 117-7 7.008 7.008 0 01-7 7z"/><path class="cls-1" d="M10.896 7.396a3.5 3.5 0 103.5 3.5 3.504 3.504 0 00-3.5-3.5zm0 5a1.5 1.5 0 111.5-1.5 1.502 1.502 0 01-1.5 1.5z"/></g></g><g id="green" data-name="Слой 2" fill="#c6e0b2"><g id="Слой_1-2" data-name="Слой 1"><path class="cls-1" d="M20.792 9.896h-.955a9.012 9.012 0 00-7.941-7.941V1a1 1 0 00-2 0v.955a9.012 9.012 0 00-7.941 7.94H1a1 1 0 100 2h.955a9.012 9.012 0 007.94 7.942v.955a1 1 0 002 0v-.955a9.012 9.012 0 007.942-7.941h.955a1 1 0 100-2zm-9.896 8a7 7 0 117-7 7.008 7.008 0 01-7 7z"/><path class="cls-1" d="M10.896 7.396a3.5 3.5 0 103.5 3.5 3.504 3.504 0 00-3.5-3.5zm0 5a1.5 1.5 0 111.5-1.5 1.502 1.502 0 01-1.5 1.5z"/></g></g></svg>