<svg xmlns="http://www.w3.org/2000/svg" viewBox="0 0 17.844 10.519"><defs><style>.cls-1{fill:#7bbe49}</style></defs><g id="Слой_2" data-name="Слой 2"><g id="Слой_1-2" data-name="Слой 1"><path class="cls-1" d="M17.093 0H.751A.751.751 0 000 .751v6.892h17.844V.75a.751.751 0 00-.751-.75z"/><path d="M0 9.767a.751.751 0 00.751.752h16.342a.751.751 0 00.751-.752V7.643H0zm13.756-1.471h2.612v1.361h-2.612zm-4.093 0h2.612v1.361H9.663zm-4.093 0h2.612v1.361H5.57zm-4.094 0h2.612v1.361H1.476z" fill="#95d35f"/><path class="cls-1" d="M1.476 8.296h2.612v1.362H1.476zm4.094 0h2.612v1.362H5.57zm4.093 0h2.612v1.362H9.663zm4.093 0h2.612v1.362h-2.612z"/></g></g></svg>