<svg xmlns="http://www.w3.org/2000/svg" viewBox="0 0 17.844 10.519"><g id="Слой_2" data-name="Слой 2"><g id="Слой_1-2" data-name="Слой 1"><path d="M17.093 0H3.701a.751.751 0 00-.752.751v9.016a.751.751 0 00.752.752h13.392a.751.751 0 00.751-.752V.751A.751.751 0 0017.093 0zm-3.28 5.6h-1.5l1.19 1.191a.341.341 0 01-.482.483l-1.673-1.673h-.61v.61l1.673 1.673a.341.341 0 01-.482.483l-1.19-1.19v1.498a.341.341 0 01-.684 0V7.176l-1.19 1.19v.001a.341.341 0 01-.483-.483l1.673-1.674V5.6h-.61L7.774 7.275a.341.341 0 11-.483-.483l1.19-1.19H6.982a.341.341 0 110-.683H8.48l-1.19-1.19a.341.341 0 11.483-.483l1.673 1.673h.61v-.61L8.381 2.635a.341.341 0 01.483-.482l1.19 1.19V1.844a.341.341 0 11.683 0v1.499l1.19-1.19a.341.341 0 01.483.482l-1.673 1.673v.61h.61l1.673-1.673a.341.341 0 01.483.483l-1.19 1.19h1.498a.341.341 0 110 .683z" fill="#7bbe49"/><path d="M.751 1.315A.754.754 0 000 2.066v2.442a.754.754 0 00.751.751H2.95V1.315z" fill="#95d35f"/><path d="M13.812 4.918h-1.499l1.19-1.19a.341.341 0 00-.481-.484l-1.674 1.674h-.61v-.61l1.673-1.673a.341.341 0 00-.482-.482l-1.19 1.19V1.844a.341.341 0 10-.684 0v1.499l-1.19-1.19a.341.341 0 00-.483.482l1.673 1.673v.61h-.61L7.774 3.245a.341.341 0 10-.484.482l1.19 1.192H6.982a.341.341 0 100 .683H8.48L7.29 6.79a.341.341 0 10.482.484v-.001L9.446 5.6h.61v.61L8.381 7.883a.341.341 0 00.483.483l1.19-1.19v1.498a.341.341 0 00.683 0V7.176l1.19 1.19a.341.341 0 00.483-.482L10.738 6.21V5.6h.61l1.673 1.674a.341.341 0 00.483-.483l-1.19-1.19h1.498a.341.341 0 100-.683z" fill="#fff"/></g></g></svg>