<svg xmlns="http://www.w3.org/2000/svg" viewBox="0 0 22.325 10.519"><defs><style>.cls-2{fill:#95d35f}</style></defs><g id="Слой_2" data-name="Слой 2"><g id="Слой_1-2" data-name="Слой 1"><path d="M21.574 0H6.868a.751.751 0 00-.751.751v5.072H1.113a.751.751 0 00-.746.667L.005 9.683a.751.751 0 00.746.836h20.823a.751.751 0 00.751-.752V.751A.751.751 0 0021.574 0zm-8.328 8.546a.751.751 0 01-.75.752h-4.07a.751.751 0 01-.752-.752v-6.26a.751.751 0 01.751-.752h4.07a.751.751 0 01.751.751zm6.7-3.474a.751.751 0 01-.751.75h-4.07a.751.751 0 01-.752-.75V2.285a.751.751 0 01.752-.751h4.07a.751.751 0 01.75.751z" fill="#7bbe49"/><path class="cls-2" d="M6.109 1.534L1.675 5.823h4.434V1.534z"/><rect class="cls-2" x="7.674" y="1.534" width="5.572" height="7.764" rx=".751" ry=".751"/><rect class="cls-2" x="14.373" y="1.534" width="5.572" height="4.289" rx=".751" ry=".751"/></g></g></svg>