<svg xmlns="http://www.w3.org/2000/svg" viewBox="0 0 17.844 9.016"><g id="Слой_2" data-name="Слой 2"><g id="Слой_1-2" data-name="Слой 1"><path d="M17.213 4.171L1.353 1.604V.676A.676.676 0 00.676 0 .676.676 0 000 .676v7.589a.751.751 0 00.751.751h16.342a.751.751 0 00.751-.751V4.913a.751.751 0 00-.63-.742zM3.225 7.537h-.627V4.86h.627zm3.005 0h-.626V4.86h.626zm3.005 0H8.61V4.86h.626zm3.006 0h-.627V4.86h.627zm3.005 0h-.626V4.86h.626z" fill="#7bbe49"/><path d="M2.598 4.86h.626v2.677h-.626zm3.006 0h.626v2.677h-.626zm3.005 0h.626v2.677h-.626zm3.005 0h.626v2.677h-.626zm3.006 0h.626v2.677h-.626z" fill="#95d35f"/></g></g></svg>