<svg xmlns="http://www.w3.org/2000/svg" viewBox="0 0 13.555 10.519"><defs><style>.cls-2{fill:#7bbe49}</style></defs><g id="Слой_2" data-name="Слой 2"><g id="Слой_1-2" data-name="Слой 1"><path d="M11.352 1.147H2.204a1.128 1.128 0 00-1.127 1.127v5.96A1.128 1.128 0 002.204 9.36h9.148a1.128 1.128 0 001.127-1.127v-5.96a1.128 1.128 0 00-1.127-1.126zm.375 7.086a.376.376 0 01-.375.376H2.204a.376.376 0 01-.376-.376v-5.96a.376.376 0 01.376-.375h9.148a.376.376 0 01.375.376z" fill="none"/><path class="cls-2" d="M12.804 0H.751A.751.751 0 000 .751v9.016a.751.751 0 00.751.752h12.053a.751.751 0 00.751-.752V.751a.751.751 0 00-.75-.751zm-.325 8.233a1.128 1.128 0 01-1.127 1.127H2.204a1.128 1.128 0 01-1.127-1.127v-5.96a1.128 1.128 0 011.127-1.126h9.148a1.128 1.128 0 011.127 1.127z"/><rect class="cls-2" x="1.828" y="1.898" width="9.899" height="6.711" rx=".376" ry=".376"/></g></g></svg>