<svg xmlns="http://www.w3.org/2000/svg" viewBox="0 0 44.228 40.774"><defs><style>.cls-1{fill:#7bbe49}</style></defs><g id="Слой_2" data-name="Слой 2"><g id="Слой_1-2" data-name="Слой 1"><rect class="cls-1" x="7.366" y="1.943" width="12.628" height="12.628" rx="1" ry="1"/><rect class="cls-1" x="2.509" y="16.368" width="12.628" height="12.628" rx="1" ry="1"/><rect class="cls-1" x="17.323" y="16.368" width="12.628" height="12.628" rx="1" ry="1"/><path d="M34.374 33.61a1 1 0 001-1V4.968l8.115-2.198a1 1 0 00.704-1.227l-.218-.804a1 1 0 00-1.227-.704L32.541 2.8v27.977H1a1 1 0 00-1 1v.833a1 1 0 001 1h33.374z" fill="#fff"/><circle class="cls-1" cx="5.12" cy="37.839" r="2.934"/><circle class="cls-1" cx="28.271" cy="37.839" r="2.934"/></g></g></svg>