<svg xmlns="http://www.w3.org/2000/svg" viewBox="0 0 83.573 39.226"><defs><style>.cls-1{fill:#7bbe49}</style></defs><g id="Слой_2" data-name="Слой 2"><g id="Слой_1-2" data-name="Слой 1"><path class="cls-1" d="M12.783 19.186L.176 37.662a1 1 0 00.826 1.564h25.214a1 1 0 00.826-1.564L14.435 19.186a1 1 0 00-1.652 0z"/><path d="M40.827.436L15.426 37.662a1 1 0 00.826 1.564h50.802a1 1 0 00.826-1.564L42.479.436a1 1 0 00-1.652 0z" fill="#fff"/><path class="cls-1" d="M64.533 12.436L47.32 37.662a1 1 0 00.826 1.564h34.426a1 1 0 00.826-1.564L66.185 12.436a1 1 0 00-1.652 0z"/></g></g></svg>