<svg xmlns="http://www.w3.org/2000/svg" viewBox="0 0 49.974 35.288"><defs><style>.cls-1{fill:#7bbe49}.cls-2{fill:#fff}</style></defs><g id="Слой_2" data-name="Слой 2"><g id="Слой_1-2" data-name="Слой 1"><path class="cls-1" d="M4.601 35.288a.92.92 0 00.886-.951V18.002a.92.92 0 00-.886-.952.92.92 0 00-.886.952v16.335a.92.92 0 00.886.951zm24.912-17.286v16.335a.92.92 0 00.886.951.92.92 0 00.886-.951V18.002a.92.92 0 00-.886-.952.92.92 0 00-.886.952z"/><rect class="cls-2" y="15.795" width="35" height="2.511" rx="1" ry="1"/><rect class="cls-1" x="38.974" width="11" height="35.288" rx="1" ry="1"/><rect class="cls-2" x="40.755" y="24.292" width="7.438" height="8.813" rx="1" ry="1"/><rect class="cls-2" x="40.755" y="10.238" width="7.438" height="3.054" rx="1" ry="1"/><rect class="cls-2" x="40.755" y="14.644" width="7.438" height="3.054" rx="1" ry="1"/><rect class="cls-2" x="40.755" y="19.05" width="7.438" height="3.054" rx="1" ry="1"/><rect class="cls-2" x="40.755" y="5.832" width="7.438" height="3.054" rx="1" ry="1"/></g></g></svg>