<svg xmlns="http://www.w3.org/2000/svg" viewBox="0 0 74.496 74.44"><g id="Слой_2" data-name="Слой 2"><path d="M39.34 0a37.193 37.193 0 015.576.728l-1.503 5.61a31.453 31.453 0 00-4.073-.531zm-4.129 5.807a31.478 31.478 0 00-4.073.532L29.635.729A37.373 37.373 0 0135.211 0zM27.15 7.405a31.11 31.11 0 00-3.795 1.573L20.45 3.949a37.075 37.075 0 015.195-2.154zm-7.37 3.64a31.487 31.487 0 00-1.162 51.532v6.92a37.286 37.286 0 01-1.74-63.48l2.902 5.028zm29.126-9.25A37.061 37.061 0 0154.1 3.949l-2.902 5.029a31.183 31.183 0 00-3.795-1.573zm8.77 4.223a37.352 37.352 0 014.457 3.424l-4.104 4.106a31.471 31.471 0 00-3.257-2.502zm7.378 6.344a37.46 37.46 0 013.426 4.459l-5.029 2.903a31.888 31.888 0 00-2.502-3.256zm5.493 8.033a37.075 37.075 0 012.155 5.195l-5.61 1.503A31.365 31.365 0 0065.52 23.3zm3.22 9.185a37.336 37.336 0 01.728 5.576H68.69a31.646 31.646 0 00-.531-4.073l5.609-1.503zm.73 9.705a37.23 37.23 0 01-.73 5.576l-5.608-1.503a31.477 31.477 0 00.53-4.073zm-1.795 9.565a37.075 37.075 0 01-2.155 5.195l-5.028-2.904a31.11 31.11 0 001.572-3.794zm-4.223 8.77a37.452 37.452 0 01-3.425 4.458l-4.106-4.106a31.457 31.457 0 002.502-3.256l5.029 2.903zm-6.344 7.379a37.452 37.452 0 01-4.46 3.425l-2.902-5.029a31.732 31.732 0 003.256-2.502l4.106 4.106zm-8.033 5.493a37.208 37.208 0 01-5.196 2.154l-1.503-5.61a31.116 31.116 0 003.795-1.574zm-9.186 3.22a37.336 37.336 0 01-5.576.728v-5.806a31.646 31.646 0 004.073-.532l1.503 5.61z" fill="#8fa53f" id="Слой_1-2" data-name="Слой 1"/></g></svg>