<svg xmlns="http://www.w3.org/2000/svg" viewBox="0 0 221.375 85.813"><defs><style>.cls-1{fill:#434448}.cls-5{fill:#202427}.cls-6{fill:#b1b1b1}.cls-9{fill:#d3d3d3}.cls-12{fill:#9d9e99}.cls-14{fill:#fffdff}.cls-15{fill:#ffc490}.cls-21{fill:#c9c9c9}</style></defs><g id="Слой_2" data-name="Слой 2"><g id="Слой_1-2" data-name="Слой 1"><path class="cls-1" d="M91.355 49.682h41.539v2.898H91.355z"/><rect class="cls-1" x="47.194" y="39.435" width="48.025" height="14.387" rx="7.193" ry="7.193"/><path fill="#b0bf60" d="M30.633 0h99.363v44.713H30.633z"/><path fill="#999a9b" d="M42.64 44.713h87.357v6.624H42.64z"/><path d="M189.037 38.51a13.297 13.297 0 00-13.085-11.185h-2.51a10.348 10.348 0 01-7.595-3.317c-4.004-4.325-10.591-11.407-11.292-11.957a19.611 19.611 0 00-9.478-4.1l-2.063-.295a20.258 20.258 0 00-2.865-.204h-10.153v47.612h54.236a4.983 4.983 0 004.968-4.968v-10.35a4.917 4.917 0 00-.163-1.237z" fill="#e0e0df"/><path class="cls-1" d="M87.94 55.478c.02-.274.034-.55.034-.828a11.385 11.385 0 10-22.77 0c0 .279.013.554.033.828z"/><circle class="cls-5" cx="76.658" cy="55.478" r="9.522"/><circle class="cls-6" cx="76.658" cy="55.478" r="5.796"/><path d="M129.996 55.478h54.236a4.983 4.983 0 004.968-4.968v-.828h-59.204v5.796z" fill="#68696b"/><path class="cls-1" d="M178.196 55.478c.02-.274.033-.55.033-.828a11.385 11.385 0 00-22.77 0c0 .279.013.554.032.828z"/><circle class="cls-5" cx="166.912" cy="55.478" r="9.522"/><circle class="cls-6" cx="166.912" cy="55.478" r="5.796"/><path d="M164.625 27.341l-.02-.021c-4.004-4.325-10.591-11.407-11.292-11.957a19.611 19.611 0 00-9.478-4.1l-2.063-.295a20.262 20.262 0 00-2.865-.204h-6.013v34.777h20.55a3.49 3.49 0 002.85-1.475l8.679-12.28a3.524 3.524 0 00-.348-4.445z" fill="#ebe7dc"/><path class="cls-9" d="M153.313 15.363a19.611 19.611 0 00-9.478-4.1l-2.063-.295a20.262 20.262 0 00-2.865-.204h-6.013v16.147h31.333c-4.028-4.348-10.235-11.015-10.914-11.548z"/><path d="M156.426 25.316a1.041 1.041 0 00-.16-.84c-.357-.398-1.185-.278-5.364 1.12a22.55 22.55 0 01-3.323.72c-.746.117-1.393.186-1.801-.2-.271-.256-.331-.615-.44-1.32-.174-1.124.045-1.345-.16-1.722a2.241 2.241 0 00-3.043-.4c-.255.302-.17.935 0 2.202a5.495 5.495 0 00.52 2.041c.061.115.136.257.232.408h9.531c3.463-1.03 3.908-1.475 4.008-2.01z" fill="#f2af7c"/><path d="M135.792 29.395h5.383a.828.828 0 01.828.828.828.828 0 01-.828.828h-5.383a.828.828 0 01-.828-.828.828.828 0 01.828-.828z" fill="#c6c2ba"/><path class="cls-12" d="M160.81 23.646h-1.694a3.593 3.593 0 00-3.583 3.582c0 .033.004.064.005.097h8.689c-1.038-1.12-2.221-2.395-3.417-3.68zm5.689 3.99l-2.23-1.183a2.308 2.308 0 01-.955-1.9v-5.569c0-.766.43-1.164.956-.886l2.229 1.183a2.308 2.308 0 01.955 1.9v5.569c0 .766-.43 1.164-.955.886z"/><path d="M166.056 25.908l-1.343-.857a1.795 1.795 0 01-.576-1.376V19.64c0-.555.259-.844.576-.642l1.343.857a1.795 1.795 0 01.576 1.376v4.035c0 .555-.26.844-.576.642z" fill="#dfdfdf"/><path class="cls-12" d="M164.566 26.536a.828.828 0 01.828.828v2.07a.828.828 0 01-.828.828.828.828 0 01-.828-.828v-2.07a.828.828 0 01.828-.828z" transform="rotate(25.215 164.566 28.399)"/><path class="cls-14" d="M185.613 33.714a.82.82 0 00-.703-.386h-2.645a3.632 3.632 0 00-3.577 4.196 3.697 3.697 0 003.687 3.05h3.436s1.605-.663 1.4-1.585a24.609 24.609 0 00-1.598-5.275z"/><rect class="cls-14" x="183.369" y="50.975" width="4.002" height="1.863" rx=".932" ry=".932"/><path class="cls-15" d="M141.702 21.433a1.728 1.728 0 001.62-1.809l-.733-1.579c-.15-.861.457-1 .644-1.854l.09-.408v-1.251a1.631 1.631 0 10-3.243 0v5.092a1.728 1.728 0 001.621 1.81z"/><path d="M137.178 21.465c.067-.15.48-.935.598-1.15a5.9 5.9 0 011.369-1.407 2.288 2.288 0 01.909-.326 1.822 1.822 0 01.8.213c.46.334.538.557 1.015.705.282.088.723-.606 1.142-.72a.755.755 0 01.598.141 7.362 7.362 0 011.064.85 3.485 3.485 0 01.825 1.415c.056.253.116.528.171.817a11.462 11.462 0 01.224 1.871c.014.602-1.639.355-1.634.72.005.493.416 3.897.388 4.033l-5.654.22c-.018-1.742.099-4.301-.207-4.455-.075-.037-.11-.078-.46.274-.383.384-.64.642-.975.64-.395-.002-.662-.531-.646-1.49 0-.03.042-.5.092-.933a7.061 7.061 0 01.381-1.418z" fill="#db6300"/><path d="M144.23 12.94a.747.747 0 01-.547.913c-.646.097-.91-.504-1.761-.48a1.076 1.076 0 00-.841.28c-.361.463.176 1.313-.12 1.52-.196.138-.53-.169-.72 0-.156.139-.058.296-.021.605.043.366.033.338.38.677a1.56 1.56 0 01.32.64c.116.324.099.417.018.503a.564.564 0 01-.64 0c-.332-.207-.185.092-.258-.583-.12-1.117-.37-1.007-.56-2.322-.14-.968-.21-1.495.12-1.921a1.808 1.808 0 011.04-.56 4.561 4.561 0 011.882 0 5.486 5.486 0 01.88.16c.547.15.78.247.828.569z" fill="#84734e"/><path class="cls-15" d="M146.52 26.602c-.236-.372-.78-.259-3.53 1.046a11.27 11.27 0 01-2.185.673c-.49.109-.917.174-1.185-.187a2.585 2.585 0 01-.29-1.233c-.016-.153-.226-1.352-.363-2.161l-.046-.28a.416.416 0 00-.464-.34 1.791 1.791 0 01-.19.01c-.524 0-1.101-.181-1.546.138.016.18.482 2.489.503 2.708a6.906 6.906 0 00.342 1.906 3.168 3.168 0 00.658 1.16c.19.19.58.501 1.738.448a6.29 6.29 0 001.87-.374c4.273-1.61 4.71-2.103 4.792-2.73a1.325 1.325 0 00-.105-.784z"/><path d="M134.318 17.986a5.589 5.589 0 00.555-2.53c0-2.011-.89-3.657-1.979-3.657v15.526h2.109V19.53a2.097 2.097 0 00-.685-1.544z" fill="#696a6b"/><path class="cls-12" transform="rotate(33.137 156.284 25.077)" d="M154.744 24.27h3.079v1.615h-3.079z"/><path d="M157.345 21.994a.725.725 0 00-1.213-.792l-3.527 5.403a.723.723 0 00-.037.72h1.297z" fill="#676d6c"/><rect class="cls-9" x="180.299" y="35.26" width="1.518" height="3.761" rx=".759" ry=".759"/><path fill="#718e22" d="M30.633 17.078h99.363V44.73H30.633z"/><rect class="cls-21" y="83.479" width="58" height="2.333" rx="1.167" ry="1.167"/><rect class="cls-21" x="73.333" y="83.479" width="21.771" height="2.333" rx="1.167" ry="1.167"/><rect class="cls-21" x="109.708" y="83.479" width="12.521" height="2.333" rx="1.167" ry="1.167"/><rect class="cls-21" x="137.146" y="83.479" width="26.896" height="2.333" rx="1.167" ry="1.167"/><rect class="cls-21" x="178.896" y="83.479" width="42.479" height="2.333" rx="1.167" ry="1.167"/></g></g></svg>