<svg xmlns="http://www.w3.org/2000/svg" viewBox="0 0 80.797 81"><g id="Слой_2" data-name="Слой 2"><g id="Слой_1-2" data-name="Слой 1"><path d="M80.797 32.887H49.439l-1.137-3.045h14.021V0h-43.85v29.842h14.428l-1.136 3.045H0v8.527h5.481v37.15h2.64V81h3.247v-2.436h2.233V49.128h33.294v29.436h4.263V81h3.248v-2.436h12.992V81h3.249v-2.436h3.857v-37.15h6.293zM21.722 3.248h37.353v23.346H21.722zm14.646 26.594h8.467l1.136 3.045h-10.74zM10.353 75.316H8.73V41.414h1.624zm3.248-29.436v-4.466h33.294v4.466zM50.144 54h21.113v8.932H50.143zm0 21.316V66.18h21.113v9.136zm21.113-24.564H50.143v-9.338h21.113zm6.293-12.587H3.25v-2.03h74.3z"/><path d="M59.072 68.613h3.661v3.248h-3.661zm0-12.18h3.661v3.248h-3.661zm0-12.181h3.661V47.5h-3.661z"/></g></g></svg>