<svg xmlns="http://www.w3.org/2000/svg" viewBox="0 0 113.015 77.726"><g id="Слой_2" data-name="Слой 2"><g id="Слой_1-2" data-name="Слой 1"><path d="M19.538 65.816h1.946v3.891h-1.946a1.946 1.946 0 01-1.946-1.945 1.946 1.946 0 011.946-1.946zm5.837-11.675h3.892v3.892h-3.892zm21.404 3.892h3.892v3.892h-3.892zm9.729-25.296H60.4v3.892h-3.892zM35.104 63.87h3.892v3.892h-3.892zM50.67 46.358h3.892v3.892H50.67zm29.187 3.891h3.892v3.892h-3.892zM54.562 21.063h3.892v3.892h-3.892zm5.837 38.915h3.892v3.892h-3.892zm5.838-13.62h3.892v3.892h-3.892zm7.783 19.458h3.892v3.892H74.02zM37.05 46.358h3.892v3.892H37.05zm5.837-13.621h3.892v3.892h-3.892zm25.295 1.946h3.892v3.892h-3.892zM87.64 61.924h3.892v3.892H87.64z"/><path fill="none" stroke="#000" stroke-miterlimit="10" stroke-width="3.5" d="M109.58 75.976H3.436l53.072-73h0l53.072 73z"/></g></g></svg>