<svg xmlns="http://www.w3.org/2000/svg" viewBox="0 0 674.95 674.44"><g id="Слой_2" data-name="Слой 2"><path d="M356.43 0a336.972 336.972 0 0150.52 6.6l-13.62 50.82a284.966 284.966 0 00-36.9-4.81zm-37.41 52.61a285.199 285.199 0 00-36.9 4.82L268.5 6.6A338.61 338.61 0 01319.02.01zm-73.04 14.48a281.864 281.864 0 00-34.38 14.25l-26.31-45.56a335.908 335.908 0 0147.07-19.52zm-66.77 32.98a285.274 285.274 0 00-10.53 466.89v62.7a337.822 337.822 0 01-15.77-575.15l26.3 45.56zM443.1 16.26a335.784 335.784 0 0147.06 19.52l-26.3 45.56a282.523 282.523 0 00-34.38-14.25zm79.45 38.26a338.412 338.412 0 0140.39 31.03l-37.19 37.2a285.134 285.134 0 00-29.51-22.67zM589.4 112a339.397 339.397 0 0131.04 40.4l-45.56 26.3a288.916 288.916 0 00-22.67-29.5zm49.77 72.78a335.909 335.909 0 0119.52 47.07l-50.82 13.62a284.174 284.174 0 00-14.26-34.38zM668.35 268a338.27 338.27 0 016.59 50.52h-52.6a286.714 286.714 0 00-4.81-36.9L668.35 268zm6.6 87.93a337.314 337.314 0 01-6.6 50.52l-50.82-13.62a285.191 285.191 0 004.81-36.9zm-16.26 86.66a335.91 335.91 0 01-19.52 47.07l-45.56-26.31a281.87 281.87 0 0014.25-34.38zm-38.26 79.45a339.326 339.326 0 01-31.03 40.4l-37.2-37.2a285.01 285.01 0 0022.67-29.5l45.56 26.3zm-57.48 66.86a339.326 339.326 0 01-40.4 31.03l-26.3-45.56a287.495 287.495 0 0029.5-22.67l37.2 37.2zm-72.78 49.77a337.112 337.112 0 01-47.07 19.52l-13.62-50.83a281.914 281.914 0 0034.38-14.26zm-83.22 29.18a338.27 338.27 0 01-50.52 6.59v-52.6a286.72 286.72 0 0036.9-4.82l13.62 50.83z" id="Слой_1-2" data-name="Слой 1"/></g></svg>