<svg xmlns="http://www.w3.org/2000/svg" viewBox="0 0 43.1 45.075"><g id="Слой_2" data-name="Слой 2"><g id="Слой_1-2" data-name="Слой 1" stroke="#000" stroke-miterlimit="10"><rect x="1.55" y="1.55" width="40" height="41.975" rx="7" ry="7" fill="none" stroke-width="3.1"/><path d="M24.806 20.462a1 1 0 00.72-.3l5.12-5.27v3.41a1 1 0 002 0v-5.88a1 1 0 00-.12-.36 1 1 0 00-.22-.32l-.1-.06a.71.71 0 00-.48-.19h-5.84a1 1 0 000 2h3.39l-5.19 5.35a1 1 0 00.72 1.62zm-14.28 12.5a1 1 0 00.14.22.93.93 0 00.07.1 1 1 0 00.71.3h5.87a1 1 0 000-2h-3.39l5.27-5.07a1 1 0 00-1.39-1.44l-5.35 5.15v-3.39a1 1 0 00-2 0v5.75a.94.94 0 000 .13 1 1 0 00.07.25z" stroke-width=".7"/></g></g></svg>